<svg xmlns="http://www.w3.org/2000/svg" width="98.079" height="98.079" viewBox="0 0 98.079 98.079">
  <g id="Grupo_589" data-name="Grupo 589" transform="translate(-2 -2)">
    <path id="Caminho_916" data-name="Caminho 916" d="M13.036,49.885h7.006a1.635,1.635,0,0,0,1.635-1.635V44.885l.518-.27a1.636,1.636,0,0,0,.883-1.45V40.259a6.76,6.76,0,0,0-2.664-5.383,4.852,4.852,0,0,0,.049-5.914,4.9,4.9,0,0,0-6.866-.981,4.978,4.978,0,0,0-.981.981,4.838,4.838,0,0,0-.981,2.942,4.907,4.907,0,0,0,.195,1.368,4.824,4.824,0,0,0,.83,1.607A6.756,6.756,0,0,0,10,40.259v2.906a1.636,1.636,0,0,0,.883,1.45l.518.27V48.25A1.635,1.635,0,0,0,13.036,49.885Zm6.772-7.716-.518.27a1.634,1.634,0,0,0-.883,1.452v2.725H14.67V43.891a1.634,1.634,0,0,0-.883-1.452l-.518-.27V40.259a3.269,3.269,0,1,1,6.539,0Zm-4.837-9.808a1.623,1.623,0,0,1,.26-1.438,1.635,1.635,0,0,1,2.615,0,1.6,1.6,0,0,1,.327.981,1.635,1.635,0,0,1-3.2.463Z" transform="translate(5.077 15.866)" fill="#18608b"/>
    <path id="Caminho_917" data-name="Caminho 917" d="M46,40.259v2.906a1.636,1.636,0,0,0,.883,1.45l.518.27V48.25a1.635,1.635,0,0,0,1.635,1.635h7.006a1.635,1.635,0,0,0,1.635-1.635V44.885l.518-.27a1.636,1.636,0,0,0,.883-1.45V40.259a6.76,6.76,0,0,0-2.664-5.383,4.852,4.852,0,0,0,.049-5.914,4.9,4.9,0,0,0-6.866-.981,4.978,4.978,0,0,0-.981.981,4.838,4.838,0,0,0-.981,2.942,4.907,4.907,0,0,0,.195,1.368,4.824,4.824,0,0,0,.83,1.607A6.756,6.756,0,0,0,46,40.259Zm9.808,1.911-.518.27a1.634,1.634,0,0,0-.883,1.452v2.725H50.67V43.891a1.634,1.634,0,0,0-.883-1.452l-.518-.27V40.259a3.269,3.269,0,1,1,6.539,0Zm-4.837-9.808a1.623,1.623,0,0,1,.26-1.438,1.635,1.635,0,0,1,2.615,0,1.6,1.6,0,0,1,.327.981,1.635,1.635,0,0,1-3.2.463Z" transform="translate(27.925 15.866)" fill="#18608b"/>
    <path id="Caminho_918" data-name="Caminho 918" d="M56.228,29.071a1.636,1.636,0,0,0-2.311,0l-3.362,3.361a20.132,20.132,0,0,0-5.015-2.03V28.885l.518-.27a1.636,1.636,0,0,0,.883-1.45V24.259a6.76,6.76,0,0,0-2.664-5.383,4.852,4.852,0,0,0,.049-5.914,4.9,4.9,0,0,0-6.866-.981,4.978,4.978,0,0,0-.981.981A4.838,4.838,0,0,0,35.5,15.9a4.907,4.907,0,0,0,.195,1.368,4.824,4.824,0,0,0,.83,1.607,6.756,6.756,0,0,0-2.66,5.38v2.906a1.636,1.636,0,0,0,.883,1.45l.518.27V30.4a20.132,20.132,0,0,0-5.015,2.03l-3.362-3.361a1.636,1.636,0,0,0-2.311,0L19.241,34.4a1.636,1.636,0,0,0,0,2.311L22.6,40.077a20.271,20.271,0,0,0-2.289,6.056l3.206.654a17.022,17.022,0,0,1,2.512-6.048,1.634,1.634,0,0,0-.208-2.056L22.7,35.564l3.022-3.022,3.121,3.119a1.636,1.636,0,0,0,2.058.208,17.044,17.044,0,0,1,5.107-2.275,1.587,1.587,0,0,0,.883.3H43.9a1.587,1.587,0,0,0,.883-.3,17.044,17.044,0,0,1,5.107,2.275,1.636,1.636,0,0,0,2.058-.208l3.121-3.119,3.022,3.022-3.119,3.119a1.634,1.634,0,0,0-.208,2.056,17.022,17.022,0,0,1,2.512,6.048l3.206-.654a20.271,20.271,0,0,0-2.289-6.056l3.361-3.361a1.636,1.636,0,0,0,0-2.311Zm-17.394-12.7a1.641,1.641,0,0,1-.067-.463,1.606,1.606,0,0,1,.327-.981,1.635,1.635,0,0,1,2.615,0,1.6,1.6,0,0,1,.327.981,1.635,1.635,0,0,1-3.2.463Zm4.837,9.808-.518.27A1.634,1.634,0,0,0,42.27,27.9v2.72H38.533V27.891a1.634,1.634,0,0,0-.883-1.452l-.518-.27V24.259a3.269,3.269,0,0,1,6.539,0Z" transform="translate(10.638 5.712)" fill="#18608b"/>
    <path id="Caminho_919" data-name="Caminho 919" d="M58.2,43.816a20.224,20.224,0,0,0,2.289-6.048l-3.206-.654a17.022,17.022,0,0,1-2.512,6.048,1.636,1.636,0,0,0,.208,2.058L58.1,48.34l-3.022,3.022-3.119-3.119a1.634,1.634,0,0,0-2.056-.208,17.022,17.022,0,0,1-6.048,2.512,1.633,1.633,0,0,0-1.308,1.6v4.4H38.261v-4.4a1.633,1.633,0,0,0-1.308-1.6,17.022,17.022,0,0,1-6.048-2.512,1.634,1.634,0,0,0-2.056.208L25.73,51.356l-3.022-3.022,3.119-3.121a1.636,1.636,0,0,0,.208-2.058,17.022,17.022,0,0,1-2.512-6.048l-3.206.654A20.223,20.223,0,0,0,22.6,43.809l-3.361,3.362a1.636,1.636,0,0,0,0,2.311l5.334,5.334a1.682,1.682,0,0,0,2.311,0l3.361-3.361a20.344,20.344,0,0,0,4.74,1.975v4.752a1.635,1.635,0,0,0,1.635,1.635H44.17a1.635,1.635,0,0,0,1.635-1.635v-4.74a20.345,20.345,0,0,0,4.74-1.975l3.361,3.361a1.636,1.636,0,0,0,2.311,0l5.334-5.334a1.636,1.636,0,0,0,0-2.311Z" transform="translate(10.64 22.281)" fill="#18608b"/>
    <path id="Caminho_920" data-name="Caminho 920" d="M37.712,55.424A14.712,14.712,0,1,0,23,40.712,14.711,14.711,0,0,0,37.712,55.424Zm0-26.154A11.443,11.443,0,1,1,26.269,40.712,11.443,11.443,0,0,1,37.712,29.269Z" transform="translate(13.328 15.232)" fill="#18608b"/>
    <path id="Caminho_921" data-name="Caminho 921" d="M33.9,41.443c-1.013,0-1.635-.528-1.635-.817H29a4.15,4.15,0,0,0,3.269,3.845v1.877h3.269V44.47a4.15,4.15,0,0,0,3.269-3.845,4.5,4.5,0,0,0-4.879-4.088l-.025,0c-1.013,0-1.635-.528-1.635-.817S32.89,34.9,33.9,34.9s1.635.528,1.635.817h3.269a4.15,4.15,0,0,0-3.269-3.845V30H32.269v1.877A4.15,4.15,0,0,0,29,35.721a4.5,4.5,0,0,0,4.879,4.088l.025,0c1.013,0,1.635.528,1.635.817S34.917,41.443,33.9,41.443Z" transform="translate(17.136 17.77)" fill="#18608b"/>
    <path id="Caminho_922" data-name="Caminho 922" d="M62.49,24.239a1.635,1.635,0,0,0-3.171,0L56.049,37.316a1.636,1.636,0,0,0,1.586,2.03h1.635v.008l3.269-.008h1.635a1.635,1.635,0,0,0,1.635-1.635,1.609,1.609,0,0,0-.049-.4ZM60.9,31.374l1.175,4.7H59.729Z" transform="translate(34.271 13.328)" fill="#18608b"/>
    <path id="Caminho_923" data-name="Caminho 923" d="M38.6,59.3l.92,3.139c1.071-.314,2.151-.673,3.212-1.067l-1.144-3.065C40.611,58.672,39.605,59.007,38.6,59.3Z" transform="translate(23.228 35.735)" fill="#18608b"/>
    <path id="Caminho_924" data-name="Caminho 924" d="M15.322,58.467c.951.613,1.931,1.195,2.91,1.731l1.568-2.87c-.911-.49-1.823-1.038-2.709-1.608Z" transform="translate(8.455 34.093)" fill="#18608b"/>
    <path id="Caminho_925" data-name="Caminho 925" d="M22.825,62.051c1.1.327,2.2.6,3.284.834l.687-3.2c-1.005-.216-2.032-.477-3.05-.776Z" transform="translate(13.217 36.119)" fill="#18608b"/>
    <path id="Caminho_926" data-name="Caminho 926" d="M34.84,59.944l.463,3.238c1.1-.163,2.217-.358,3.327-.6l-.683-3.2C36.9,59.612,35.863,59.8,34.84,59.944Z" transform="translate(20.842 36.423)" fill="#18608b"/>
    <path id="Caminho_927" data-name="Caminho 927" d="M12.012,55.877c.857.744,1.743,1.46,2.635,2.125l1.962-2.615c-.829-.62-1.651-1.285-2.452-1.976Z" transform="translate(6.354 32.627)" fill="#18608b"/>
    <path id="Caminho_928" data-name="Caminho 928" d="M26.87,62.962c1.1.163,2.236.278,3.366.356l.229-3.259c-1.051-.075-2.105-.188-3.132-.327Z" transform="translate(15.784 36.64)" fill="#18608b"/>
    <path id="Caminho_929" data-name="Caminho 929" d="M18.95,60.539c1.012.464,2.063.9,3.122,1.295l1.144-3.062c-.981-.369-1.962-.775-2.906-1.206Z" transform="translate(10.757 35.265)" fill="#18608b"/>
    <path id="Caminho_930" data-name="Caminho 930" d="M9.085,52.822c.732.847,1.509,1.679,2.306,2.478l2.311-2.3c-.744-.744-1.471-1.52-2.146-2.3Z" transform="translate(4.497 30.901)" fill="#18608b"/>
    <path id="Caminho_931" data-name="Caminho 931" d="M5.269,33H2c0,1.131.039,2.269.119,3.377l3.259-.232C5.305,35.114,5.269,34.054,5.269,33Z" transform="translate(0 19.674)" fill="#18608b"/>
    <path id="Caminho_932" data-name="Caminho 932" d="M6.3,40.606l-3.139.92c.314,1.071.673,2.151,1.067,3.212L7.3,43.594C6.932,42.61,6.6,41.6,6.3,40.606Z" transform="translate(0.74 24.501)" fill="#18608b"/>
    <path id="Caminho_933" data-name="Caminho 933" d="M5.528,36.841,2.291,37.3c.163,1.1.358,2.215.6,3.327l3.2-.683C5.861,38.9,5.673,37.864,5.528,36.841Z" transform="translate(0.185 22.112)" fill="#18608b"/>
    <path id="Caminho_934" data-name="Caminho 934" d="M9.353,47.6,6.6,49.37c.615.955,1.265,1.89,1.935,2.779l2.615-1.962C10.523,49.359,9.925,48.489,9.353,47.6Z" transform="translate(2.919 28.94)" fill="#18608b"/>
    <path id="Caminho_935" data-name="Caminho 935" d="M7.587,44.218l-2.973,1.36c.472,1.031.981,2.051,1.519,3.027L9,47.035C8.5,46.127,8.024,45.179,7.587,44.218Z" transform="translate(1.659 26.794)" fill="#18608b"/>
    <path id="Caminho_936" data-name="Caminho 936" d="M31,60.045h0v3.269c1.123,0,2.257-.039,3.372-.116l-.226-3.269C33.105,60.009,32.048,60.045,31,60.045Z" transform="translate(18.405 36.765)" fill="#18608b"/>
    <path id="Caminho_937" data-name="Caminho 937" d="M12.372,16.154,9.9,14.013c-.744.857-1.458,1.743-2.125,2.635l2.615,1.962C11.016,17.776,11.681,16.954,12.372,16.154Z" transform="translate(3.668 7.624)" fill="#18608b"/>
    <path id="Caminho_938" data-name="Caminho 938" d="M8.09,22.311l-2.973-1.36c-.464,1.012-.9,2.063-1.295,3.122l3.062,1.144C7.253,24.232,7.659,23.253,8.09,22.311Z" transform="translate(1.156 12.027)" fill="#18608b"/>
    <path id="Caminho_939" data-name="Caminho 939" d="M10.017,19.093,7.273,17.324c-.61.942-1.193,1.922-1.733,2.9L8.407,21.8C8.907,20.881,9.453,19.971,10.017,19.093Z" transform="translate(2.247 9.725)" fill="#18608b"/>
    <path id="Caminho_940" data-name="Caminho 940" d="M15.105,13.56l-2.138-2.472c-.847.732-1.679,1.509-2.478,2.306L12.8,15.7C13.544,14.96,14.321,14.24,15.105,13.56Z" transform="translate(5.388 5.768)" fill="#18608b"/>
    <path id="Caminho_941" data-name="Caminho 941" d="M25.522,8.082c1.04-.221,2.083-.409,3.106-.554l-.463-3.237c-1.1.163-2.215.358-3.327.6Z" transform="translate(14.495 1.454)" fill="#18608b"/>
    <path id="Caminho_942" data-name="Caminho 942" d="M42.216,58.117l1.36,2.973c1.031-.472,2.051-.981,3.027-1.519L45.033,56.7C44.125,57.2,43.171,57.681,42.216,58.117Z" transform="translate(25.523 34.715)" fill="#18608b"/>
    <path id="Caminho_943" data-name="Caminho 943" d="M18.167,11.354,16.395,8.6c-.955.613-1.89,1.265-2.779,1.935l1.962,2.615C16.406,12.531,17.276,11.927,18.167,11.354Z" transform="translate(7.372 4.189)" fill="#18608b"/>
    <path id="Caminho_944" data-name="Caminho 944" d="M6.63,25.747l-3.139-.92c-.327,1.1-.6,2.2-.834,3.284l3.2.687C6.07,27.792,6.331,26.766,6.63,25.747Z" transform="translate(0.418 14.487)" fill="#18608b"/>
    <path id="Caminho_945" data-name="Caminho 945" d="M2.073,32.237l3.259.229c.075-1.051.188-2.105.327-3.132l-3.237-.463C2.271,29.974,2.151,31.107,2.073,32.237Z" transform="translate(0.046 17.054)" fill="#18608b"/>
    <path id="Caminho_946" data-name="Caminho 946" d="M20.864,6.234,22.008,9.3C22.989,8.933,24,8.6,25,8.306l-.92-3.139C23.005,5.481,21.925,5.84,20.864,6.234Z" transform="translate(11.972 2.01)" fill="#18608b"/>
    <path id="Caminho_947" data-name="Caminho 947" d="M21.483,9.588l-1.36-2.973c-1.02.466-2.038.981-3.027,1.52L18.667,11C19.587,10.5,20.535,10.023,21.483,9.588Z" transform="translate(9.581 2.929)" fill="#18608b"/>
    <path id="Caminho_948" data-name="Caminho 948" d="M53.719,48.654l2.748,1.764c.613-.951,1.195-1.931,1.731-2.91L55.323,45.94C54.832,46.855,54.29,47.763,53.719,48.654Z" transform="translate(32.824 27.887)" fill="#18608b"/>
    <path id="Caminho_949" data-name="Caminho 949" d="M51.408,51.632l2.468,2.141c.744-.857,1.46-1.743,2.125-2.635l-2.615-1.962C52.765,50.011,52.1,50.833,51.408,51.632Z" transform="translate(31.357 29.941)" fill="#18608b"/>
    <path id="Caminho_950" data-name="Caminho 950" d="M45.6,56.417l1.767,2.749c.955-.615,1.89-1.265,2.779-1.935l-1.962-2.615C47.356,55.244,46.486,55.845,45.6,56.417Z" transform="translate(27.671 33.393)" fill="#18608b"/>
    <path id="Caminho_951" data-name="Caminho 951" d="M48.684,54.233,50.822,56.7c.847-.732,1.68-1.509,2.478-2.306l-2.311-2.311C50.245,52.837,49.469,53.558,48.684,54.233Z" transform="translate(29.628 31.788)" fill="#18608b"/>
    <path id="Caminho_952" data-name="Caminho 952" d="M56.911,41.8l3.139.92c.327-1.089.6-2.194.835-3.282l-3.2-.69C57.47,39.758,57.209,40.784,56.911,41.8Z" transform="translate(34.849 23.321)" fill="#18608b"/>
    <path id="Caminho_953" data-name="Caminho 953" d="M57.728,38.064l3.237.463c.163-1.126.281-2.259.358-3.369l-3.269-.222C57.99,35.963,57.877,37.016,57.728,38.064Z" transform="translate(35.368 20.902)" fill="#18608b"/>
    <path id="Caminho_954" data-name="Caminho 954" d="M55.566,45.348l2.973,1.36c.464-1.012.9-2.063,1.295-3.122l-3.062-1.144C56.4,43.428,56,44.407,55.566,45.348Z" transform="translate(33.996 25.667)" fill="#18608b"/>
    <path id="Caminho_955" data-name="Caminho 955" d="M35.582,2a4.9,4.9,0,0,0-4.618,3.317c-.68.02-1.365.025-2.032.072l.232,3.259c.6-.043,1.218-.046,1.829-.064A4.9,4.9,0,1,0,35.582,2Zm0,6.539A1.635,1.635,0,1,1,37.216,6.9,1.635,1.635,0,0,1,35.582,8.539Z" transform="translate(17.092 0)" fill="#18608b"/>
  </g>
</svg>
