<svg xmlns="http://www.w3.org/2000/svg" width="92.909" height="97.554" viewBox="0 0 92.909 97.554">
  <g id="Grupo_1119" data-name="Grupo 1119" transform="translate(-658.591 -1098.047)">
    <g id="noun_automation_3132334" transform="translate(658.591 1098.047)">
      <g id="Grupo_592" data-name="Grupo 592" transform="translate(0)">
        <path id="Caminho_965" data-name="Caminho 965" d="M28.31,50.271l5.171-2.458,3.64,1.508,1.919,5.395a1.548,1.548,0,0,0,1.458,1.03h6.749a1.548,1.548,0,0,0,1.459-1.029l1.919-5.395,3.64-1.508,5.171,2.458a1.55,1.55,0,0,0,1.76-.3L65.967,45.2a1.548,1.548,0,0,0,.3-1.76l-2.458-5.171,1.508-3.64,5.395-1.919a1.548,1.548,0,0,0,1.03-1.459V24.5a1.548,1.548,0,0,0-1.029-1.459l-5.395-1.919-1.508-3.64,2.458-5.171a1.548,1.548,0,0,0-.3-1.76L61.2,5.778a1.548,1.548,0,0,0-1.76-.3L54.265,7.932l-3.64-1.508L48.706,1.03A1.548,1.548,0,0,0,47.247,0H40.5a1.548,1.548,0,0,0-1.459,1.029L37.121,6.424l-3.64,1.508L28.31,5.474a1.548,1.548,0,0,0-1.761.3l-4.771,4.771a1.548,1.548,0,0,0-.3,1.761l2.458,5.171-1.508,3.64L17.03,23.039A1.548,1.548,0,0,0,16,24.5v6.749a1.548,1.548,0,0,0,1.029,1.459l5.395,1.919,1.508,3.64-2.458,5.171a1.548,1.548,0,0,0,.3,1.76l4.771,4.771A1.55,1.55,0,0,0,28.31,50.271ZM27.057,37.715,25.022,32.8a1.547,1.547,0,0,0-.912-.866L19.1,30.154V25.591l5.013-1.783a1.547,1.547,0,0,0,.912-.866l2.035-4.911a1.548,1.548,0,0,0-.032-1.258l-2.284-4.806L27.967,8.74l4.806,2.284a1.547,1.547,0,0,0,1.258.032l4.912-2.035a1.547,1.547,0,0,0,.865-.911L41.591,3.1h4.563L47.937,8.11a1.547,1.547,0,0,0,.866.912l4.911,2.035a1.547,1.547,0,0,0,1.258-.032l4.806-2.284,3.226,3.226-2.284,4.806a1.548,1.548,0,0,0-.032,1.258l2.035,4.912a1.547,1.547,0,0,0,.911.865l5.013,1.783v4.563l-5.013,1.784a1.547,1.547,0,0,0-.912.866l-2.035,4.911a1.548,1.548,0,0,0,.032,1.258L63,43.779l-3.226,3.226-4.806-2.284a1.547,1.547,0,0,0-1.258-.032L48.8,46.724a1.547,1.547,0,0,0-.865.911l-1.783,5.013H41.591l-1.783-5.013a1.547,1.547,0,0,0-.866-.912L34.03,44.688a1.547,1.547,0,0,0-1.258.032L27.966,47,24.74,43.778l2.284-4.806A1.548,1.548,0,0,0,27.057,37.715Z" transform="translate(-16)" fill="#18608b"/>
        <path id="Caminho_966" data-name="Caminho 966" d="M101.936,99.873A13.936,13.936,0,1,0,88,85.936,13.936,13.936,0,0,0,101.936,99.873Zm0-24.776A10.839,10.839,0,1,1,91.1,85.936,10.839,10.839,0,0,1,101.936,75.1Z" transform="translate(-74.064 -58.064)" fill="#18608b"/>
        <path id="Caminho_967" data-name="Caminho 967" d="M120.141,294.546l-2.034,4.912a1.549,1.549,0,0,0,.032,1.258l2.284,4.806-3.226,3.226-4.806-2.284a1.548,1.548,0,0,0-1.258-.032l-4.91,2.033a1.548,1.548,0,0,0-.867.912l-1.783,5.014H99.01l-1.783-5.013a1.547,1.547,0,0,0-.866-.912l-4.912-2.035a1.547,1.547,0,0,0-1.258.032l-4.806,2.284-3.226-3.226,2.284-4.806a1.548,1.548,0,0,0,.032-1.258l-2.034-4.912a1.548,1.548,0,0,0-.911-.865L76.517,291.9v-4.564l5.013-1.783a1.548,1.548,0,0,0,.912-.866l2.034-4.912a1.549,1.549,0,0,0-.032-1.258l-2.754-5.793-2.8,1.331,2.458,5.171-1.508,3.64-5.395,1.918a1.548,1.548,0,0,0-1.03,1.459v6.749a1.548,1.548,0,0,0,1.03,1.459l5.395,1.918,1.508,3.64-2.458,5.171a1.548,1.548,0,0,0,.3,1.76l4.771,4.771a1.548,1.548,0,0,0,1.76.3l5.171-2.458,3.639,1.508,1.919,5.395a1.548,1.548,0,0,0,1.46,1.03h6.749a1.549,1.549,0,0,0,1.459-1.03l1.918-5.395,3.64-1.508,5.171,2.458a1.548,1.548,0,0,0,1.76-.3l4.772-4.771a1.548,1.548,0,0,0,.3-1.76l-2.458-5.171L123,295.732Z" transform="translate(-62.306 -219.934)" fill="#18608b"/>
        <path id="Caminho_968" data-name="Caminho 968" d="M280.217,248.731l-4.772-4.771a1.549,1.549,0,0,0-1.76-.3l-5.793,2.754,1.33,2.8,4.806-2.284,3.226,3.226-2.284,4.806a1.549,1.549,0,0,0-.032,1.258l1.757,4.241,2.861-1.185-1.493-3.605,2.458-5.171A1.548,1.548,0,0,0,280.217,248.731Z" transform="translate(-219.137 -196.373)" fill="#18608b"/>
        <path id="Caminho_969" data-name="Caminho 969" d="M159.352,315.873a13.936,13.936,0,1,0-13.936-13.936A13.936,13.936,0,0,0,159.352,315.873Zm0-24.776a10.839,10.839,0,1,1-10.839,10.839A10.839,10.839,0,0,1,159.352,291.1Z" transform="translate(-120.366 -232.255)" fill="#18608b"/>
        <path id="Caminho_970" data-name="Caminho 970" d="M332.9,47.039,327.5,45.121l-1.508-3.64,2.458-5.171a1.548,1.548,0,0,0-.3-1.76l-4.771-4.771a1.548,1.548,0,0,0-1.76-.3l-5.171,2.458-3.64-1.508-1.918-5.395a1.548,1.548,0,0,0-1.46-1.03H302.68a1.548,1.548,0,0,0-1.459,1.03L299.3,30.424,295.027,32.2l1.185,2.861,4.912-2.035a1.548,1.548,0,0,0,.866-.912l1.783-5.013h4.563l1.784,5.013a1.547,1.547,0,0,0,.866.912l4.911,2.035a1.548,1.548,0,0,0,1.258-.032l4.806-2.284,3.226,3.226L322.9,40.773a1.549,1.549,0,0,0-.032,1.258l2.035,4.912a1.548,1.548,0,0,0,.911.865l5.013,1.783v4.563l-5.013,1.784a1.549,1.549,0,0,0-.912.867l-2.035,4.911a1.548,1.548,0,0,0,.032,1.258l2.284,4.806-4,4,2.191,2.189,4.771-4.771a1.548,1.548,0,0,0,.3-1.76l-2.458-5.171,1.508-3.64,5.395-1.918a1.548,1.548,0,0,0,1.03-1.46V48.5a1.548,1.548,0,0,0-1.029-1.459Z" transform="translate(-241.019 -19.355)" fill="#18608b"/>
        <path id="Caminho_971" data-name="Caminho 971" d="M298.159,120.773A10.8,10.8,0,0,1,288.107,114l-2.871,1.161a13.936,13.936,0,1,0,5.953-17.3l1.551,2.681a10.839,10.839,0,1,1,5.418,20.23Z" transform="translate(-233.123 -77.415)" fill="#18608b"/>
        <path id="Caminho_972" data-name="Caminho 972" d="M343.758,258.839h-5.177v-6.194a4.645,4.645,0,0,0-9.291,0V265.94l-1.04-1.04a4.833,4.833,0,0,0-6.836,6.836l7.875,7.875v2.456h-1.548a1.548,1.548,0,0,0-1.548,1.548v13.936h3.1V285.163h18.582v12.388h3.1V283.615a1.548,1.548,0,0,0-1.548-1.548h-1.548v-2.456l3.174-3.174a10.308,10.308,0,0,0-7.288-17.6Zm5.1,15.407-3.628,3.628a1.548,1.548,0,0,0-.454,1.095v3.1H332.387v-3.1a1.549,1.549,0,0,0-.454-1.1l-8.329-8.329a1.736,1.736,0,1,1,2.455-2.455l3.683,3.683a1.548,1.548,0,0,0,2.643-1.095V252.645a1.548,1.548,0,0,1,3.1,0v7.742a1.548,1.548,0,0,0,1.548,1.548h6.725a7.211,7.211,0,0,1,5.1,12.31Z" transform="translate(-261.157 -199.997)" fill="#18608b"/>
        <rect id="Retângulo_1534" data-name="Retângulo 1534" width="2" height="3" transform="translate(81.409 87.954)" fill="#18608b"/>
      </g>
    </g>
  </g>
</svg>
