<svg id="Grupo_1109" data-name="Grupo 1109" xmlns="http://www.w3.org/2000/svg" width="70.164" height="69.303" viewBox="0 0 70.164 69.303">
  <rect id="Retângulo_1553" data-name="Retângulo 1553" width="3.659" height="3.659" transform="translate(33.217 0)" fill="#e6de0f"/>
  <rect id="Retângulo_1554" data-name="Retângulo 1554" width="3.659" height="3.659" transform="translate(33.217 65.644)" fill="#e6de0f"/>
  <rect id="Retângulo_1555" data-name="Retângulo 1555" width="3.659" height="3.659" transform="translate(9.183 55.098)" fill="#e6de0f"/>
  <rect id="Retângulo_1556" data-name="Retângulo 1556" width="3.659" height="3.659" transform="translate(56.246 55.098)" fill="#e6de0f"/>
  <rect id="Retângulo_1557" data-name="Retângulo 1557" width="3.659" height="3.659" transform="translate(9.183 10.044)" fill="#e6de0f"/>
  <rect id="Retângulo_1558" data-name="Retângulo 1558" width="3.659" height="3.659" transform="translate(56.246 10.044)" fill="#e6de0f"/>
  <rect id="Retângulo_1559" data-name="Retângulo 1559" width="3.659" height="3.659" transform="translate(0 32.499)" fill="#e6de0f"/>
  <rect id="Retângulo_1560" data-name="Retângulo 1560" width="3.659" height="3.659" transform="translate(66.505 32.499)" fill="#e6de0f"/>
  <path id="Caminho_1481" data-name="Caminho 1481" d="M8.365,24.215a32.432,32.432,0,0,0-5.094,13.7l-.072.43H5.352l.072-.359a32.439,32.439,0,0,1,5.237-13.416l.43-.574H8.581Z" transform="translate(-1.693 -8.002)" fill="#e6de0f"/>
  <path id="Caminho_1482" data-name="Caminho 1482" d="M5.252,55.459,5.181,55.1H3.1l.072.43A33.821,33.821,0,0,0,8.194,69.592l.143.143h2.511l-.43-.574A32.542,32.542,0,0,1,5.252,55.459Z" transform="translate(-1.665 -16.79)" fill="#e6de0f"/>
  <path id="Caminho_1483" data-name="Caminho 1483" d="M91.5,38.118l.072.359H93.72l-.072-.43a34.466,34.466,0,0,0-5.094-13.7l-.143-.143H85.9l.43.574A32.631,32.631,0,0,1,91.5,38.118Z" transform="translate(-25.063 -8.058)" fill="#e6de0f"/>
  <path id="Caminho_1484" data-name="Caminho 1484" d="M91.668,55.1l-.072.359a32.185,32.185,0,0,1-5.165,13.7l-.43.646h2.511l.143-.143A32.515,32.515,0,0,0,93.676,55.6l.072-.43L91.668,55.1Z" transform="translate(-25.091 -16.79)" fill="#e6de0f"/>
  <path id="Caminho_1485" data-name="Caminho 1485" d="M68.844,10.2l.072.072H72.5l-.933-.717A32.715,32.715,0,0,0,55.93,3.172L55.5,3.1V5.252l.359.072A30.473,30.473,0,0,1,68.844,10.2Z" transform="translate(-16.472 -2.096)" fill="#e6de0f"/>
  <path id="Caminho_1486" data-name="Caminho 1486" d="M21.533,9.557l-.933.717h3.587l.072-.072A31.057,31.057,0,0,1,37.388,5.324l.359-.072V3.1l-.43.072A33.224,33.224,0,0,0,21.533,9.557Z" transform="translate(-6.61 -2.096)" fill="#e6de0f"/>
  <path id="Caminho_1487" data-name="Caminho 1487" d="M69.174,86.772a32.212,32.212,0,0,1-13.416,5.094l-.359.072v2.152l.43-.072a33.58,33.58,0,0,0,16-6.6l.933-.717-3.587.072Z" transform="translate(-16.444 -25.719)" fill="#e6de0f"/>
  <path id="Caminho_1488" data-name="Caminho 1488" d="M23.859,86.772l-.143-.072H20.2l.933.717a33.833,33.833,0,0,0,16.07,6.6l.43.072V91.937l-.359-.143A32.722,32.722,0,0,1,23.859,86.772Z" transform="translate(-6.497 -25.719)" fill="#e6de0f"/>
  <path id="Caminho_1489" data-name="Caminho 1489" d="M57.785,33.179l-2.8,1.076a15.007,15.007,0,0,0-3.8-3.874l1.363-3.228a1.223,1.223,0,0,0,0-.717.867.867,0,0,0-.5-.5l-4.3-1.865a.9.9,0,0,0-1.22.5l-1.435,3.3a15.862,15.862,0,0,0-4.878-.072l-1.22-3.013a.9.9,0,0,0-1.22-.5L33.392,26a.9.9,0,0,0-.5,1.22l1.148,2.941a14.214,14.214,0,0,0-3.659,3.515l-3.515-1.507a.9.9,0,0,0-1.22.5l-1.865,4.3a1.223,1.223,0,0,0,0,.717.867.867,0,0,0,.5.5l3.372,1.435a15.845,15.845,0,0,0-.143,5.524l-2.8,1.076a.9.9,0,0,0-.5,1.22l1.722,4.376a.9.9,0,0,0,1.22.5l2.8-1.076a16.346,16.346,0,0,0,3.444,3.587L32.029,57.93a1.223,1.223,0,0,0,0,.717.867.867,0,0,0,.5.5l4.3,1.865a1.223,1.223,0,0,0,.717,0,.867.867,0,0,0,.5-.5L39.347,57.5a14.668,14.668,0,0,0,5.6.072l1,2.511a.9.9,0,0,0,1.22.5l4.376-1.722a.9.9,0,0,0,.5-1.22l-1-2.583a14.738,14.738,0,0,0,3.8-3.8l2.583,1.076a1.223,1.223,0,0,0,.717,0,.867.867,0,0,0,.5-.5l1.865-4.3a1.223,1.223,0,0,0,0-.717.867.867,0,0,0-.5-.5l-2.654-1.148a14.753,14.753,0,0,0,0-5.022l2.8-1.076a.9.9,0,0,0,.5-1.22l-1.722-4.3A.853.853,0,0,0,57.785,33.179ZM45.947,51.4a9.272,9.272,0,1,1,5.165-12.053A9.313,9.313,0,0,1,45.947,51.4Z" transform="translate(-7.493 -7.997)" fill="#e6de0f"/>
</svg>
