<svg xmlns="http://www.w3.org/2000/svg" data-name="Layer 1" viewBox="0 0 64 80" x="0px" y="0px"><title>seo market analysis dashboard</title><path d="M57,12H7a3,3,0,0,0-3,3V49a3,3,0,0,0,3,3H57a3,3,0,0,0,3-3V15A3,3,0,0,0,57,12ZM6,15a1,1,0,0,1,1-1H57a1,1,0,0,1,1,1v3H6ZM58,49a1,1,0,0,1-1,1H7a1,1,0,0,1-1-1V20H58Z"/><path d="M55,15h0a1,1,0,1,0,1,1A1,1,0,0,0,55,15Z"/><path d="M51,15h0a1,1,0,1,0,1,1A1,1,0,0,0,51,15Z"/><path d="M47,15h0a1,1,0,1,0,1,1A1,1,0,0,0,47,15Z"/><path d="M9,24h7a1,1,0,0,0,0-2H9a1,1,0,0,0,0,2Z"/><path d="M9,28h7a1,1,0,0,0,0-2H9a1,1,0,0,0,0,2Z"/><path d="M9,32h7a1,1,0,0,0,0-2H9a1,1,0,0,0,0,2Z"/><path d="M9,36h7a1,1,0,0,0,0-2H9a1,1,0,0,0,0,2Z"/><path d="M39,34h8.82a1,1,0,0,0,.77-.36,1,1,0,0,0,.21-.82,11.91,11.91,0,0,0-3-6L46.63,25H51a1,1,0,0,0,0-2H46a1,1,0,0,0-.9.56l-.9,1.85a12,12,0,0,0-5-2.21,1,1,0,0,0-.82.21,1,1,0,0,0-.36.77V33A1,1,0,0,0,39,34Zm1-8.54A10.07,10.07,0,0,1,46.54,32H40Z"/><path d="M55,25h0a1,1,0,1,0-1-1A1,1,0,0,0,55,25Z"/><path d="M55,26H52a1,1,0,0,0,0,2h3a1,1,0,0,0,0-2Z"/><path d="M27.57,42.56,26.38,45H22a1,1,0,0,0,0,2h5a1,1,0,0,0,.9-.56L29.09,44A12,12,0,0,0,48.8,37.18a1,1,0,0,0-.21-.82,1,1,0,0,0-.77-.36H36V24.18a1,1,0,0,0-.36-.77,1,1,0,0,0-.82-.21,12,12,0,0,0-7.19,19.28ZM34,25.46V37a1,1,0,0,0,1,1H46.54A10,10,0,1,1,34,25.46Z"/><path d="M18,47a1,1,0,1,0,0-2h0a1,1,0,1,0,0,2Z"/><path d="M18,44h3a1,1,0,1,0,0-2H18a1,1,0,0,0,0,2Z"/><text x="0" y="79" fill="#000000" font-size="5px" font-weight="bold" font-family="'Helvetica Neue', Helvetica, Arial-Unicode, Arial, Sans-serif">Created by LUTFI GANI AL ACHMAD</text><text x="0" y="84" fill="#000000" font-size="5px" font-weight="bold" font-family="'Helvetica Neue', Helvetica, Arial-Unicode, Arial, Sans-serif">from the Noun Project</text></svg>