<svg xmlns="http://www.w3.org/2000/svg" width="80.054" height="110.56" viewBox="0 0 80.054 110.56">
  <g id="Grupo_1124" data-name="Grupo 1124" transform="translate(-17.416 -5)">
    <path id="Caminho_1534" data-name="Caminho 1534" d="M52.929,32.785h6.027a1.843,1.843,0,1,0,0-3.685H52.929a1.843,1.843,0,0,0,0,3.685Z" transform="translate(7.691 5.505)" fill="#18608b"/>
    <path id="Caminho_1535" data-name="Caminho 1535" d="M72.02,29.1H64.345a1.843,1.843,0,1,0,0,3.685H72.02a1.843,1.843,0,1,0,0-3.685Z" transform="translate(10.299 5.505)" fill="#18608b"/>
    <path id="Caminho_1536" data-name="Caminho 1536" d="M42.275,40.7H30.093a1.843,1.843,0,1,0,0,3.685H42.275a1.843,1.843,0,0,0,0-3.685Z" transform="translate(2.475 8.155)" fill="#18608b"/>
    <path id="Caminho_1537" data-name="Caminho 1537" d="M76.208,40.7h-30.2a1.843,1.843,0,1,0,0,3.685h30.2a1.843,1.843,0,0,0,0-3.685Z" transform="translate(6.111 8.155)" fill="#18608b"/>
    <path id="Caminho_1538" data-name="Caminho 1538" d="M59.882,52.3H30.093a1.843,1.843,0,1,0,0,3.685H59.882a1.843,1.843,0,1,0,0-3.685Z" transform="translate(2.475 10.805)" fill="#18608b"/>
    <path id="Caminho_1539" data-name="Caminho 1539" d="M72.858,52.3H60.677a1.843,1.843,0,0,0,0,3.685H72.858a1.843,1.843,0,0,0,0-3.685Z" transform="translate(9.461 10.805)" fill="#18608b"/>
    <path id="Caminho_1540" data-name="Caminho 1540" d="M30.093,63.9a1.843,1.843,0,1,0,0,3.685H40.636a1.843,1.843,0,1,0,0-3.685Z" transform="translate(2.475 13.455)" fill="#18608b"/>
    <path id="Caminho_1541" data-name="Caminho 1541" d="M42.833,65.743a1.842,1.842,0,0,0,1.843,1.843H58.19a1.843,1.843,0,0,0,0-3.685H44.676A1.842,1.842,0,0,0,42.833,65.743Z" transform="translate(5.806 13.455)" fill="#18608b"/>
    <path id="Caminho_1542" data-name="Caminho 1542" d="M72.781,63.9H61.011a1.843,1.843,0,1,0,0,3.685H72.781a1.843,1.843,0,0,0,0-3.685Z" transform="translate(9.537 13.455)" fill="#18608b"/>
    <path id="Caminho_1543" data-name="Caminho 1543" d="M52.512,75.5H30.093a1.843,1.843,0,1,0,0,3.685H52.512a1.843,1.843,0,0,0,0-3.685Z" transform="translate(2.475 16.104)" fill="#18608b"/>
    <path id="Caminho_1544" data-name="Caminho 1544" d="M74.381,75.5H54.01a1.843,1.843,0,0,0,0,3.685H74.381a1.843,1.843,0,0,0,0-3.685Z" transform="translate(7.938 16.104)" fill="#18608b"/>
    <path id="Caminho_1545" data-name="Caminho 1545" d="M48.015,40.647A1.842,1.842,0,0,0,49.858,38.8V16.343A1.842,1.842,0,0,0,48.015,14.5H29.239A1.842,1.842,0,0,0,27.4,16.343V38.8a1.842,1.842,0,0,0,1.843,1.843ZM31.081,18.185H46.173V36.962H31.081Z" transform="translate(2.28 2.17)" fill="#18608b"/>
    <path id="Caminho_1546" data-name="Caminho 1546" d="M97.443,23.24a1.675,1.675,0,0,0-.032-.174,1.637,1.637,0,0,0-.052-.167c-.021-.058-.041-.115-.066-.171s-.053-.1-.081-.15a1.656,1.656,0,0,0-.1-.158c-.032-.044-.068-.085-.1-.127a1.768,1.768,0,0,0-.141-.146c-.017-.016-.031-.036-.049-.05L77.058,5.435c-.023-.02-.049-.032-.072-.05a1.672,1.672,0,0,0-.167-.114c-.049-.029-.1-.057-.15-.081s-.109-.049-.166-.07a1.587,1.587,0,0,0-.179-.055c-.053-.014-.106-.025-.16-.033a1.948,1.948,0,0,0-.208-.021c-.029,0-.057-.01-.086-.01H22.407a5,5,0,0,0-4.991,4.991V110.569a5,5,0,0,0,4.991,4.991H92.479a5,5,0,0,0,4.991-4.991V23.5c0-.026-.006-.05-.007-.076C97.459,23.365,97.452,23.3,97.443,23.24ZM77.712,10.807,90.584,21.662H77.712ZM92.479,111.874H22.407a1.308,1.308,0,0,1-1.306-1.306V9.991a1.308,1.308,0,0,1,1.306-1.306h51.62V23.5a1.842,1.842,0,0,0,1.843,1.843H93.784v85.221A1.306,1.306,0,0,1,92.479,111.874Z" fill="#18608b"/>
  </g>
</svg>
