<svg xmlns="http://www.w3.org/2000/svg" width="113" height="98.882" viewBox="0 0 113 98.882">
  <g id="Grupo_1128" data-name="Grupo 1128" transform="translate(-1061 -4306)">
    <g id="Grupo_1125" data-name="Grupo 1125" transform="translate(1061 4306)">
      <path id="Caminho_1547" data-name="Caminho 1547" d="M107.7,4H5.3A5.3,5.3,0,0,0,0,9.295v91.82a1.764,1.764,0,0,0,1.766,1.766H111.234A1.764,1.764,0,0,0,113,101.114V9.295A5.3,5.3,0,0,0,107.7,4ZM3.531,14.592H109.469V99.349H3.531ZM5.3,7.529H7.1a1.775,1.775,0,1,0,.019,0h5.276a1.775,1.775,0,1,0,.019,0H17.7a1.775,1.775,0,1,0,.019,0H107.7a1.766,1.766,0,0,1,1.766,1.766v1.766H3.531V9.295A1.766,1.766,0,0,1,5.3,7.529Z" transform="translate(0 -3.998)" fill="#18608b"/>
      <path id="Caminho_1548" data-name="Caminho 1548" d="M11.063,37.008a7.063,7.063,0,1,0,7.063,7.063A7.07,7.07,0,0,0,11.063,37.008Zm0,10.594a3.531,3.531,0,1,1,3.531-3.531A3.535,3.535,0,0,1,11.063,47.6Z" transform="translate(3.063 21.275)" fill="#18608b"/>
      <path id="Caminho_1549" data-name="Caminho 1549" d="M101.109,28.009H5.766A1.764,1.764,0,0,0,4,29.775V38.6a1.764,1.764,0,0,0,1.766,1.766h95.344a1.764,1.764,0,0,0,1.766-1.766V29.775A1.764,1.764,0,0,0,101.109,28.009Zm-6.545,4.043-.517.517-.517-.517a1.757,1.757,0,0,0-1.22-.512h3.477A1.75,1.75,0,0,0,94.564,32.052Zm4.78,4.783H7.531v-5.3H92.253a1.76,1.76,0,0,0-1.22,3.009L92.8,36.314a1.765,1.765,0,0,0,2.5,0l1.766-1.766a1.76,1.76,0,0,0-1.22-3.009h3.5Z" transform="translate(3.063 14.385)" fill="#18608b"/>
      <path id="Caminho_1550" data-name="Caminho 1550" d="M8.8,40.007H8.781a1.776,1.776,0,1,0,.018,0Z" transform="translate(5.379 23.571)" fill="#18608b"/>
      <path id="Caminho_1551" data-name="Caminho 1551" d="M101.109,12H5.766A1.764,1.764,0,0,0,4,13.765v8.826a1.764,1.764,0,0,0,1.766,1.766h95.344a1.764,1.764,0,0,0,1.766-1.766V13.765A1.764,1.764,0,0,0,101.109,12Zm-1.766,8.826H7.531v-5.3H99.344Z" transform="translate(3.063 2.128)" fill="#18608b"/>
      <path id="Caminho_1552" data-name="Caminho 1552" d="M101.109,20H5.766A1.764,1.764,0,0,0,4,21.766v8.826a1.764,1.764,0,0,0,1.766,1.766h95.344a1.764,1.764,0,0,0,1.766-1.766V21.766A1.764,1.764,0,0,0,101.109,20Zm-1.766,8.826H7.531v-5.3H99.344Z" transform="translate(3.063 8.254)" fill="#18608b"/>
      <path id="Caminho_1553" data-name="Caminho 1553" d="M15.766,41.538h24.7a1.766,1.766,0,1,0,0-3.531h-24.7a1.766,1.766,0,1,0,0,3.531Z" transform="translate(10.719 22.04)" fill="#18608b"/>
      <path id="Caminho_1554" data-name="Caminho 1554" d="M29.864,42.773A1.764,1.764,0,0,0,28.1,41.007H15.766a1.766,1.766,0,0,0,0,3.531H28.1A1.764,1.764,0,0,0,29.864,42.773Z" transform="translate(10.719 24.337)" fill="#18608b"/>
      <path id="Caminho_1555" data-name="Caminho 1555" d="M48.129,44.071a7.063,7.063,0,1,0-7.063,7.062A7.07,7.07,0,0,0,48.129,44.071Zm-10.594,0A3.531,3.531,0,1,1,41.066,47.6,3.535,3.535,0,0,1,37.535,44.071Z" transform="translate(26.034 21.275)" fill="#18608b"/>
      <path id="Caminho_1556" data-name="Caminho 1556" d="M70.474,38.007H45.77a1.766,1.766,0,1,0,0,3.531h24.7a1.766,1.766,0,1,0,0-3.531Z" transform="translate(33.691 22.04)" fill="#18608b"/>
      <path id="Caminho_1557" data-name="Caminho 1557" d="M58.1,41.007H45.77a1.766,1.766,0,0,0,0,3.531H58.1a1.766,1.766,0,0,0,0-3.531Z" transform="translate(33.691 24.337)" fill="#18608b"/>
      <path id="Caminho_1558" data-name="Caminho 1558" d="M62.907,48H24.059l-.005,0a7.06,7.06,0,0,0,0,14.12l.005,0H62.907a7.062,7.062,0,0,0,0-14.123ZM62.9,58.593H24.065a3.53,3.53,0,0,1,0-7.061H62.9a3.53,3.53,0,0,1,0,7.061Z" transform="translate(13.019 29.692)" fill="#18608b"/>
      <path id="Caminho_1559" data-name="Caminho 1559" d="M50.484,51H25.766a1.766,1.766,0,1,0,0,3.531H50.484a1.766,1.766,0,0,0,0-3.531Z" transform="translate(18.375 31.988)" fill="#18608b"/>
    </g>
  </g>
</svg>
