<svg xmlns="http://www.w3.org/2000/svg" width="52.386" height="84.351" viewBox="0 0 52.386 84.351">
  <path id="Caminho_1502" data-name="Caminho 1502" d="M-77.869-6.072c0,1.654-.015,3.327.021,5a.771.771,0,0,0,.456.559A15,15,0,0,1-70.31,3.675a.812.812,0,0,0,.758.09c1.433-.8,2.838-1.654,4.3-2.517a11.633,11.633,0,0,1,1.7-9.729,11.044,11.044,0,0,1,6.273-4.414,11.453,11.453,0,0,1,13.33,5.94,11.438,11.438,0,0,1-3.35,14.2,11.5,11.5,0,0,1-15.2-1.2C-64,6.9-65.518,7.765-67.017,8.667a.7.7,0,0,0-.19.622,14.7,14.7,0,0,1,.021,8.385.753.753,0,0,0,.293.639c1.332.809,2.7,1.552,4.031,2.368.509.313.707-.035.991-.291a11.441,11.441,0,0,1,14.84-.423,11.344,11.344,0,0,1,3.858,11.922A10.992,10.992,0,0,1-52.62,40.2,11.346,11.346,0,0,1-65.309,26.429a.867.867,0,0,0-.5-1.147c-1.365-.75-2.7-1.555-4.059-2.345-.731.653-1.417,1.32-2.159,1.917a14.062,14.062,0,0,1-5.2,2.61c-.388.1-.663.19-.654.7.029,1.644.011,3.289.011,4.713a39.787,39.787,0,0,1,4.386,2.611,11.356,11.356,0,0,1,3.6,12.068,11.545,11.545,0,0,1-9.7,8.056A11.363,11.363,0,0,1-92.313,43.655a11.577,11.577,0,0,1,7.984-10.224c.717-.229.989-.521.951-1.291-.07-1.443-.02-2.892-.02-4.337-7.736-2.122-11.88-7.05-11.721-15.148.1-5.332,3.654-11.619,11.717-13.4,0-1.647.024-3.317-.031-4.984-.006-.2-.4-.479-.667-.573-4.369-1.546-7.2-4.522-8.012-9.1A11.3,11.3,0,0,1-80.4-28.675a11.5,11.5,0,0,1,10.658,8.757A11.448,11.448,0,0,1-75.138-7.3C-75.971-6.832-76.883-6.509-77.869-6.072ZM-81.03,21.874a8.39,8.39,0,0,0,8.446-8.32,8.387,8.387,0,0,0-8.348-8.418A8.364,8.364,0,0,0-89.409,13.5,8.365,8.365,0,0,0-81.03,21.874ZM-59.637-1.912a5.493,5.493,0,0,0,5.452,5.487,5.564,5.564,0,0,0,5.432-5.459A5.508,5.508,0,0,0-54.2-7.3,5.436,5.436,0,0,0-59.637-1.912Zm5.424,36.221a5.509,5.509,0,0,0,5.461-5.4,5.562,5.562,0,0,0-5.416-5.472A5.494,5.494,0,0,0-59.637,28.9,5.435,5.435,0,0,0-54.213,34.31Zm-26.8-46.173a5.394,5.394,0,0,0,5.441-5.364,5.466,5.466,0,0,0-5.462-5.461,5.473,5.473,0,0,0-5.4,5.439A5.4,5.4,0,0,0-81.013-11.863Zm5.441,56.1a5.409,5.409,0,0,0-5.611-5.363,5.4,5.4,0,0,0-5.251,5.387A5.471,5.471,0,0,0-80.948,49.7,5.461,5.461,0,0,0-75.572,44.235Z" transform="translate(95.123 28.681)" fill="#e6de0f"/>
</svg>
