<svg xmlns="http://www.w3.org/2000/svg" width="68.021" height="68.02" viewBox="0 0 68.021 68.02">
  <path id="dharmachakra" d="M65.761,29.9l-2.288.143a29.557,29.557,0,0,0-5.827-14.061l1.72-1.518a2.126,2.126,0,0,0,.1-3.1L56.653,8.556a2.125,2.125,0,0,0-3.1.1l-1.518,1.719a29.584,29.584,0,0,0-14.06-5.827l.142-2.286A2.126,2.126,0,0,0,36,0H32.021A2.126,2.126,0,0,0,29.9,2.258l.143,2.288a29.546,29.546,0,0,0-14.06,5.827l-1.518-1.72a2.126,2.126,0,0,0-3.1-.1L8.556,11.367a2.125,2.125,0,0,0,.1,3.1l1.72,1.518A29.583,29.583,0,0,0,4.546,30.043L2.258,29.9A2.126,2.126,0,0,0,0,32.021V36A2.126,2.126,0,0,0,2.258,38.12l2.288-.143a29.546,29.546,0,0,0,5.827,14.06l-1.72,1.518a2.126,2.126,0,0,0-.1,3.1l2.812,2.812a2.125,2.125,0,0,0,3.1-.1l1.518-1.72a29.583,29.583,0,0,0,14.061,5.827L29.9,65.761a2.126,2.126,0,0,0,2.122,2.258H36a2.126,2.126,0,0,0,2.122-2.258l-.143-2.288a29.557,29.557,0,0,0,14.061-5.827l1.518,1.72a2.126,2.126,0,0,0,3.1.1l2.812-2.812a2.125,2.125,0,0,0-.1-3.1l-1.72-1.518a29.584,29.584,0,0,0,5.827-14.06l2.288.143A2.126,2.126,0,0,0,68.021,36V32.021a2.128,2.128,0,0,0-2.26-2.122ZM37.443,13.1a21.057,21.057,0,0,1,8.932,3.691l-5.662,6.415a12.609,12.609,0,0,0-3.8-1.588l.533-8.518Zm-6.866,0,.533,8.518a12.657,12.657,0,0,0-3.8,1.588l-5.662-6.415A21.057,21.057,0,0,1,30.577,13.1ZM16.791,21.647l6.417,5.661a12.66,12.66,0,0,0-1.589,3.8L13.1,30.577a21.051,21.051,0,0,1,3.691-8.93ZM13.1,37.443l8.518-.533a12.657,12.657,0,0,0,1.588,3.8l-6.415,5.662A21.057,21.057,0,0,1,13.1,37.443ZM30.577,54.919a21.057,21.057,0,0,1-8.932-3.691l5.661-6.417a12.66,12.66,0,0,0,3.8,1.589l-.531,8.518ZM34.01,38.261a4.251,4.251,0,1,1,4.251-4.251A4.252,4.252,0,0,1,34.01,38.261Zm3.433,16.658L36.91,46.4a12.626,12.626,0,0,0,3.8-1.589l5.661,6.417A21.051,21.051,0,0,1,37.443,54.919Zm13.786-8.546-6.415-5.662a12.609,12.609,0,0,0,1.588-3.8l8.518.533a21.043,21.043,0,0,1-3.691,8.932ZM46.4,31.11a12.626,12.626,0,0,0-1.589-3.8l6.417-5.661a21.057,21.057,0,0,1,3.691,8.932Z" fill="#e6de0f"/>
</svg>
