<svg xmlns="http://www.w3.org/2000/svg" width="93.507" height="93.623" viewBox="0 0 93.507 93.623">
  <g id="Grupo_595" data-name="Grupo 595" transform="translate(-7646.053 -816)">
    <path id="Caminho_975" data-name="Caminho 975" d="M52.521,7C34.539,7,20.552,21.679,20.552,37.216c0,20.8,17.606,20.845,17.606,34.279V89.179a6.972,6.972,0,0,0,6.992,7.281h.379c.822,2.423,3,4.163,6.991,4.163s6.17-1.74,6.993-4.162h.069a6.973,6.973,0,0,0,6.993-7.281V71.5c0-13.434,17.915-13.485,17.915-34.279C84.491,21.679,70.505,7,52.521,7Zm7.062,86.195H57.175l-.752,2.215c-.182.532-.661,1.946-3.9,1.946s-3.719-1.414-3.9-1.946l-.752-2.215H45.151a3.711,3.711,0,0,1-3.726-4.015V79.42H63.31v9.76A3.711,3.711,0,0,1,59.583,93.195ZM71.845,56.1c-4.2,3.927-8.536,7.988-8.536,15.391v4.658H54.321V57.492a8.756,8.756,0,0,0-1.739-4.9L43.737,41.707a.715.715,0,0,1,.069-.929l1.863-1.71a1.2,1.2,0,0,1,1.325-.082l2.986,2.128a4.582,4.582,0,0,0,5.436-.242l2.134-1.825a.773.773,0,0,1,.978.038L61.34,41.9a1.633,1.633,0,0,0,2.31-2.309l-2.815-2.815a4.056,4.056,0,0,0-5.409-.21l-2.134,1.825a1.327,1.327,0,0,1-1.418.063l-2.986-2.128a4.452,4.452,0,0,0-5.428.336L41.6,38.373a4,4,0,0,0-.394,5.394l8.846,10.889a5.6,5.6,0,0,1,1.007,2.836V76.154H41.424V71.5c0-7.385-4.263-11.446-8.386-15.37-4.741-4.515-9.221-8.78-9.221-18.908a26.417,26.417,0,0,1,8.257-18.6,29.2,29.2,0,0,1,40.891,0,26.417,26.417,0,0,1,8.257,18.6C81.225,47.328,76.669,51.592,71.845,56.1Z" transform="translate(7640.197 809)" fill="#18608b"/>
    <path id="Caminho_976" data-name="Caminho 976" d="M17.939,34.133A1.633,1.633,0,0,0,16.306,32.5H8.686a1.633,1.633,0,0,0,0,3.266h7.62A1.634,1.634,0,0,0,17.939,34.133Z" transform="translate(7639 811.26)" fill="#18608b"/>
    <path id="Caminho_977" data-name="Caminho 977" d="M19.371,48.487l-6.747,3.541a1.633,1.633,0,0,0,1.519,2.891l6.747-3.541a1.633,1.633,0,1,0-1.519-2.891Z" transform="translate(7639.417 812.661)" fill="#18608b"/>
    <path id="Caminho_978" data-name="Caminho 978" d="M12.623,16.525l6.745,3.544a1.633,1.633,0,0,0,1.52-2.891l-6.745-3.544a1.633,1.633,0,0,0-1.52,2.891Z" transform="translate(7639.416 809.571)" fill="#18608b"/>
    <path id="Caminho_979" data-name="Caminho 979" d="M92.2,32.5H84.58a1.633,1.633,0,0,0,0,3.266H92.2a1.633,1.633,0,1,0,0-3.266Z" transform="translate(7645.727 811.26)" fill="#18608b"/>
    <path id="Caminho_980" data-name="Caminho 980" d="M88.191,52.029l-6.747-3.541a1.633,1.633,0,0,0-1.518,2.891l6.747,3.541a1.633,1.633,0,0,0,1.518-2.891Z" transform="translate(7645.381 812.66)" fill="#18608b"/>
    <path id="Caminho_981" data-name="Caminho 981" d="M80.689,20.255a1.622,1.622,0,0,0,.758-.187l6.745-3.544a1.633,1.633,0,0,0-1.519-2.891l-6.745,3.544a1.633,1.633,0,0,0,.761,3.079Z" transform="translate(7645.382 809.571)" fill="#18608b"/>
  </g>
</svg>
