<svg xmlns="http://www.w3.org/2000/svg" width="166.123" height="93.385" viewBox="0 0 166.123 93.385">
  <g id="Grupo_124" data-name="Grupo 124" transform="translate(-5205.269 -2878.562)">
    <path id="Caminho_158" data-name="Caminho 158" d="M510.266,61.543H526.43a2.992,2.992,0,0,0,2.979-2.98V42.4a2.99,2.99,0,0,0-2.979-2.973H510.266a2.984,2.984,0,0,0-2.978,2.973V58.563a2.986,2.986,0,0,0,2.978,2.98M526.43,63.7H510.266a5.15,5.15,0,0,1-5.137-5.138V42.4a5.151,5.151,0,0,1,5.137-5.135H526.43a5.152,5.152,0,0,1,5.138,5.135V58.563A5.15,5.15,0,0,1,526.43,63.7" transform="translate(4782.855 2841.297)" fill="#168ac8"/>
    <path id="Caminho_159" data-name="Caminho 159" d="M514.263,126.42h7.5a1.042,1.042,0,0,0,1.036-1.039v-7.493a1.042,1.042,0,0,0-1.036-1.036h-7.5a1.039,1.039,0,0,0-.732.306,1.018,1.018,0,0,0-.307.73v7.493a1.019,1.019,0,0,0,.307.733,1.039,1.039,0,0,0,.732.306m7.5,1.513h-7.5a2.522,2.522,0,0,1-1.795-.75h-.006a2.559,2.559,0,0,1-.749-1.8v-7.493a2.548,2.548,0,0,1,.749-1.8h.006a2.522,2.522,0,0,1,1.795-.75h7.5a2.561,2.561,0,0,1,2.548,2.548v7.493a2.561,2.561,0,0,1-2.548,2.552" transform="translate(4778.837 2793.656)" fill="#1e6b44"/>
    <path id="Caminho_160" data-name="Caminho 160" d="M301.273,227.51a2.806,2.806,0,0,0,2.785-2.781,2.142,2.142,0,0,0-1.4-2.27c-1.982-.736-1.506-.564-3.43-1.229a11.015,11.015,0,0,1-5.177-3.811,6.258,6.258,0,0,1-1.124-3.807,8.356,8.356,0,0,1,16.711,0h-5.547a2.775,2.775,0,0,0-5.551.015,2.5,2.5,0,0,0,1.2,2.257,8.2,8.2,0,0,0,3.415,1.433,10.616,10.616,0,0,1,5.346,3.622,6.073,6.073,0,0,1,1.16,3.822,8.357,8.357,0,0,1-16.715,0h5.565a2.782,2.782,0,0,0,2.783,2.782Z" transform="translate(4912.341 2738.781)" fill="#fff"/>
    <path id="Caminho_161" data-name="Caminho 161" d="M354.423,205.411a13.905,13.905,0,0,1,11.625,21.58l2.355,2.341-3.924,3.912-2.355-2.323a13.646,13.646,0,0,1-7.65,2.3,13.914,13.914,0,0,1,0-27.828Zm3.906,13.883,3.62,3.6a8.344,8.344,0,1,0-7.526,4.742,8.281,8.281,0,0,0,3.605-.817l-3.623-3.6Z" transform="translate(4883.266 2738.703)" fill="#fff"/>
    <path id="Caminho_162" data-name="Caminho 162" d="M439.364,205.745v16.594a11.072,11.072,0,1,1-22.144,0V205.745h5.544v16.581a5.538,5.538,0,0,0,5.517,5.514,5.377,5.377,0,0,0,3.9-1.621,5.285,5.285,0,0,0,1.636-3.893V205.745Z" transform="translate(4836.497 2738.489)" fill="#fff"/>
    <path id="Caminho_163" data-name="Caminho 163" d="M481.3,228.208c-.614,1.4-1.247,2.784-1.879,4.183H473.5l12.477-27.971,12.519,27.971h-5.942c-.614-1.381-1.229-2.784-1.843-4.165h-9.375Zm7.156-4.848-2.428-5.723-2.442,5.723Z" transform="translate(4802.157 2739.297)" fill="#fff"/>
    <path id="Caminho_164" data-name="Caminho 164" d="M549.749,205.876a13.98,13.98,0,0,1,10.038,4.047c4.918,4.916,4.918,14.5,0,19.4a14.043,14.043,0,0,1-10.038,4.029h-6.8V205.895h6.8Zm.033,21.958a8.1,8.1,0,0,0,5.942-2.236,8.259,8.259,0,0,0-5.993-14.239h-1.268v16.475h1.319Z" transform="translate(4759.776 2738.409)" fill="#fff"/>
    <path id="Caminho_165" data-name="Caminho 165" d="M600.8,205.662h8.95a10.04,10.04,0,0,1,7.152,2.815,8.06,8.06,0,0,1,2.662,6.32v.851a8.34,8.34,0,0,1-1.741,5.192,6.948,6.948,0,0,1-3.945,2.8l6.219,9.581h-6.727l-7.038-10.758v10.758h-5.512Zm9.462,13.264a3.069,3.069,0,0,0,2.527-1.09,3.764,3.764,0,0,0,1.09-2.871,3.433,3.433,0,0,0-1.09-2.7,4.929,4.929,0,0,0-3.379-1.114H606.32v7.754Z" transform="translate(4724.473 2738.539)" fill="#fff"/>
    <path id="Caminho_166" data-name="Caminho 166" d="M662.784,228.208c-.614,1.4-1.247,2.784-1.879,4.183h-5.927l12.486-27.971,12.513,27.971h-5.942c-.615-1.381-1.229-2.784-1.846-4.165h-9.372Zm7.153-4.848-2.425-5.723-2.442,5.723Z" transform="translate(4691.415 2739.297)" fill="#fff"/>
    <path id="Caminho_167" data-name="Caminho 167" d="M476.607,99.726H488.5a3.132,3.132,0,0,0,3.114-3.111V84.725a3.13,3.13,0,0,0-3.114-3.11h-11.89a3.124,3.124,0,0,0-3.111,3.11v11.89a3.122,3.122,0,0,0,3.111,3.111m11.89,1.889h-11.89a5.014,5.014,0,0,1-5-5V84.725a5.011,5.011,0,0,1,5-5H488.5a5.007,5.007,0,0,1,5,5v11.89a5.009,5.009,0,0,1-5,5" transform="translate(4803.312 2815.387)" fill="#ffe500"/>
    <path id="Caminho_168" data-name="Caminho 168" d="M436.254,132.623h16.163a2.985,2.985,0,0,0,2.975-2.978V113.482a2.985,2.985,0,0,0-2.975-2.976H436.254a2.986,2.986,0,0,0-2.975,2.976v16.163a2.986,2.986,0,0,0,2.975,2.978m16.163,2.158H436.254a5.141,5.141,0,0,1-5.135-5.136V113.482a5.141,5.141,0,0,1,5.135-5.134h16.163a5.146,5.146,0,0,1,5.138,5.134v16.163a5.146,5.146,0,0,1-5.138,5.136" transform="translate(4828.016 2797.921)" fill="#bf151e"/>
  </g>
</svg>
