<svg xmlns="http://www.w3.org/2000/svg" width="294.672" height="75.527" viewBox="0 0 294.672 75.527">
  <g id="Grupo_1118" data-name="Grupo 1118" transform="translate(-134.246 -211.679)">
    <g id="WINGS" transform="translate(262.205 220.718)">
      <g id="Grupo_6" data-name="Grupo 6">
        <path id="Caminho_35" data-name="Caminho 35" d="M271.338,248.208a12.123,12.123,0,0,1-.962,4.811,12.281,12.281,0,0,1-6.577,6.576,12.1,12.1,0,0,1-4.81.963,12.312,12.312,0,0,1-4.409-.8,11.885,11.885,0,0,1-3.805-2.355,11.834,11.834,0,0,1-3.82,2.355,12.409,12.409,0,0,1-4.421.8,12.1,12.1,0,0,1-4.811-.963,12.282,12.282,0,0,1-6.577-6.576,12.124,12.124,0,0,1-.962-4.811V218.8h8.243v29.408a4.191,4.191,0,0,0,.316,1.623,4.013,4.013,0,0,0,.875,1.32,4.1,4.1,0,0,0,6.7-1.32,4.168,4.168,0,0,0,.317-1.623V218.8h8.241v29.408a4.216,4.216,0,0,0,.316,1.623,4.034,4.034,0,0,0,2.182,2.2,4.135,4.135,0,0,0,4.524-.876,4.248,4.248,0,0,0,.89-1.32,4.037,4.037,0,0,0,.331-1.623V218.8h8.213Z" transform="translate(-230.184 -218.341)" fill="#fff"/>
        <path id="Caminho_36" data-name="Caminho 36" d="M272.589,259.983h-8.243V218.8h8.243Z" transform="translate(-218.782 -218.341)" fill="#fff"/>
        <path id="Caminho_37" data-name="Caminho 37" d="M306.989,259.983h-8.816l-15.883-27.11v27.11h-8.241V218.8h8.816l15.881,27.14V218.8h8.243Z" transform="translate(-215.543 -218.341)" fill="#fff"/>
        <path id="Caminho_38" data-name="Caminho 38" d="M335.6,255.934a21.168,21.168,0,0,1-13.757,5.055,20.761,20.761,0,0,1-5.643-.762,21.068,21.068,0,0,1-5.068-2.153,21.964,21.964,0,0,1-4.309-3.332,20.757,20.757,0,0,1-3.33-4.308,21.629,21.629,0,0,1-2.139-5.1,20.923,20.923,0,0,1-.76-5.658,20.611,20.611,0,0,1,.76-5.629,21.8,21.8,0,0,1,2.139-5.07,20.749,20.749,0,0,1,3.33-4.307,21.376,21.376,0,0,1,9.378-5.456,20.813,20.813,0,0,1,5.643-.762,21.168,21.168,0,0,1,13.757,5.055l-4.308,7.18a13.808,13.808,0,0,0-4.308-2.973,12.865,12.865,0,0,0-10.21-.043,13.478,13.478,0,0,0-4.149,2.8,13.2,13.2,0,0,0-2.814,4.136,12.527,12.527,0,0,0-1.034,5.068,12.7,12.7,0,0,0,1.034,5.112,13.273,13.273,0,0,0,6.964,6.978,12.539,12.539,0,0,0,5.07,1.035,12.129,12.129,0,0,0,3.016-.375,13.779,13.779,0,0,0,2.786-1.034V239.679H335.6Z" transform="translate(-206.685 -218.456)" fill="#fff"/>
        <path id="Caminho_39" data-name="Caminho 39" d="M327.582,231.149a11.866,11.866,0,0,1,.976-4.795,12.55,12.55,0,0,1,6.577-6.578,11.9,11.9,0,0,1,4.8-.976h18.9v8.243h-18.9a4.077,4.077,0,0,0-4.108,4.107,4.188,4.188,0,0,0,.317,1.623,4.02,4.02,0,0,0,2.183,2.2,4.075,4.075,0,0,0,1.607.316h8.241a12.159,12.159,0,0,1,4.812.962,12.293,12.293,0,0,1,6.576,6.577,12.475,12.475,0,0,1,0,9.606,12.417,12.417,0,0,1-2.642,3.921,12.55,12.55,0,0,1-3.933,2.656,11.986,11.986,0,0,1-4.812.976H329.879v-8.241h18.294a4.072,4.072,0,0,0,3.792-2.5,4.138,4.138,0,0,0-.876-4.524,4.084,4.084,0,0,0-2.916-1.191h-8.241a11.872,11.872,0,0,1-4.8-.976,12.514,12.514,0,0,1-6.577-6.591A11.974,11.974,0,0,1,327.582,231.149Z" transform="translate(-197.675 -218.341)" fill="#fff"/>
      </g>
    </g>
    <g id="WINGS-2" data-name="WINGS" transform="translate(265.237 268.059)">
      <g id="Grupo_7" data-name="Grupo 7">
        <path id="Caminho_40" data-name="Caminho 40" d="M242.452,254.168v.5h-9.468v8.7h8.44v.5h-8.44v8.81h-.527V254.168Z" transform="translate(-232.457 -253.877)" fill="#fff"/>
        <path id="Caminho_41" data-name="Caminho 41" d="M242.385,258.757a9.438,9.438,0,0,1,3.442-3.469,9.425,9.425,0,0,1,9.482,0,9.526,9.526,0,0,1,3.468,3.469,9.423,9.423,0,0,1,0,9.48,9.434,9.434,0,0,1-3.468,3.442,9.322,9.322,0,0,1-4.747,1.267,9.461,9.461,0,0,1-4.748-1.227,9.144,9.144,0,0,1-3.429-3.376,9.7,9.7,0,0,1,0-9.587Zm.461,9.231a8.972,8.972,0,0,0,3.23,3.257,8.508,8.508,0,0,0,4.405,1.2,9.06,9.06,0,0,0,7.833-4.457,8.874,8.874,0,0,0,0-8.955,9.164,9.164,0,0,0-3.284-3.3,8.82,8.82,0,0,0-8.994.013,9.13,9.13,0,0,0-4.392,7.781A8.689,8.689,0,0,0,242.847,267.988Z" transform="translate(-229.566 -253.93)" fill="#fff"/>
        <path id="Caminho_42" data-name="Caminho 42" d="M268.623,272.683l-5.144-8.572a8.3,8.3,0,0,1-1.9.211h-2.926v8.361h-.528V254.168h3.8a6.443,6.443,0,0,1,2.441.514,4.986,4.986,0,0,1,2.1,1.622,4.483,4.483,0,0,1,.844,2.8,5.691,5.691,0,0,1-.8,2.993,4.37,4.37,0,0,1-2.494,1.886l5.224,8.7Zm-3.06-10.234a4.844,4.844,0,0,0,1.212-3.324,4.209,4.209,0,0,0-.646-2.307,4.455,4.455,0,0,0-1.754-1.583,5.254,5.254,0,0,0-2.427-.566h-3.3v9.151H261.5Q264.349,263.82,265.563,262.449Z" transform="translate(-223.89 -253.877)" fill="#fff"/>
        <path id="Caminho_43" data-name="Caminho 43" d="M283.2,264.968a4.156,4.156,0,0,1,1.148,2.941,4.316,4.316,0,0,1-.779,2.585,4.844,4.844,0,0,1-2.07,1.635,7.021,7.021,0,0,1-2.8.555h-4.4V254.168h3.665a6.255,6.255,0,0,1,4.049,1.12,4.413,4.413,0,0,1,1.356,3.6,5.312,5.312,0,0,1-.751,2.834,3.7,3.7,0,0,1-2.255,1.648A5.356,5.356,0,0,1,283.2,264.968Zm-8.373-1.806h3.8a4.074,4.074,0,0,0,3.19-1.148,4.467,4.467,0,0,0,1.028-3.1q0-4.245-4.852-4.245h-3.165Zm7.517,7.939a3.665,3.665,0,0,0,1.476-3.112,3.823,3.823,0,0,0-.751-2.4,4.533,4.533,0,0,0-1.939-1.451,6.621,6.621,0,0,0-2.479-.474h-3.824v8.545h3.824A5.979,5.979,0,0,0,282.345,271.1Z" transform="translate(-218.491 -253.877)" fill="#fff"/>
        <path id="Caminho_44" data-name="Caminho 44" d="M286.667,270.863a5.341,5.341,0,0,0,3.969,1.53,5.8,5.8,0,0,0,2.836-.686,4.881,4.881,0,0,0,1.965-1.991,6.375,6.375,0,0,0,.711-3.1V254.168h.528v12.5a6.762,6.762,0,0,1-.791,3.362,5.272,5.272,0,0,1-2.163,2.137,6.953,6.953,0,0,1-6.185,0,5.229,5.229,0,0,1-2.135-2.123,6.825,6.825,0,0,1-.779-3.376v-12.5h.527v12.449A5.762,5.762,0,0,0,286.667,270.863Z" transform="translate(-215.046 -253.877)" fill="#fff"/>
        <path id="Caminho_45" data-name="Caminho 45" d="M304.335,254.827a9.514,9.514,0,0,0-2.3-.289,5.552,5.552,0,0,0-2.347.475,3.714,3.714,0,0,0-1.582,1.3,3.238,3.238,0,0,0-.555,1.833,2.805,2.805,0,0,0,.634,1.847,4.973,4.973,0,0,0,1.583,1.254,23.771,23.771,0,0,0,2.506,1.067,21.3,21.3,0,0,1,2.7,1.187,5.249,5.249,0,0,1,1.794,1.609,4.434,4.434,0,0,1,.725,2.612,5.147,5.147,0,0,1-.725,2.757,4.826,4.826,0,0,1-1.993,1.806,6.327,6.327,0,0,1-2.874.634,8.679,8.679,0,0,1-2.491-.343,9.045,9.045,0,0,1-1.623-.607q-.474-.264-1.582-.924l.264-.474a11.087,11.087,0,0,0,2.44,1.292,7.792,7.792,0,0,0,2.888.58,6.088,6.088,0,0,0,2.519-.527,4.556,4.556,0,0,0,1.911-1.6,4.4,4.4,0,0,0,.739-2.57,4,4,0,0,0-.687-2.4,5,5,0,0,0-1.714-1.5,20.012,20.012,0,0,0-2.637-1.134,22.477,22.477,0,0,1-2.572-1.1,5.194,5.194,0,0,1-1.662-1.346,3.141,3.141,0,0,1-.672-2.043,3.644,3.644,0,0,1,.659-2.149,4.419,4.419,0,0,1,1.794-1.465,5.858,5.858,0,0,1,2.506-.527,11.245,11.245,0,0,1,2.359.289,10.053,10.053,0,0,1,2.255.739l-.211.395A13.071,13.071,0,0,0,304.335,254.827Z" transform="translate(-211.178 -253.904)" fill="#fff"/>
        <path id="Caminho_46" data-name="Caminho 46" d="M307.792,254.168v18.515h-.528V254.168Z" transform="translate(-207.489 -253.877)" fill="#fff"/>
        <path id="Caminho_47" data-name="Caminho 47" d="M326.543,254.241V273.1h-.027l-14.638-17.75.027,17.408h-.527V253.95h.025l14.638,17.777V254.241Z" transform="translate(-206.115 -253.95)" fill="#fff"/>
        <path id="Caminho_48" data-name="Caminho 48" d="M337.516,254.168v.5H326.993v8.412h9.494v.5h-9.494v8.6h10.893v.5h-11.42V254.168Z" transform="translate(-201.08 -253.877)" fill="#fff"/>
        <path id="Caminho_49" data-name="Caminho 49" d="M344.931,254.827a9.5,9.5,0,0,0-2.294-.289,5.544,5.544,0,0,0-2.347.475,3.727,3.727,0,0,0-1.583,1.3,3.247,3.247,0,0,0-.554,1.833,2.8,2.8,0,0,0,.634,1.847,4.968,4.968,0,0,0,1.582,1.254,24.02,24.02,0,0,0,2.506,1.067,21.325,21.325,0,0,1,2.7,1.187,5.232,5.232,0,0,1,1.793,1.609,4.424,4.424,0,0,1,.726,2.612,5.134,5.134,0,0,1-.726,2.757,4.814,4.814,0,0,1-1.991,1.806,6.331,6.331,0,0,1-2.874.634,8.68,8.68,0,0,1-2.492-.343,8.963,8.963,0,0,1-1.623-.607q-.474-.264-1.583-.924l.265-.474a11.057,11.057,0,0,0,2.439,1.292,7.793,7.793,0,0,0,2.888.58,6.077,6.077,0,0,0,2.518-.527,4.559,4.559,0,0,0,1.913-1.6,4.4,4.4,0,0,0,.739-2.57,4,4,0,0,0-.687-2.4,5.017,5.017,0,0,0-1.714-1.5,20.038,20.038,0,0,0-2.638-1.134,22.451,22.451,0,0,1-2.57-1.1,5.181,5.181,0,0,1-1.662-1.346,3.141,3.141,0,0,1-.672-2.043,3.644,3.644,0,0,1,.659-2.149,4.418,4.418,0,0,1,1.794-1.465,5.856,5.856,0,0,1,2.5-.527,11.246,11.246,0,0,1,2.361.289,10.039,10.039,0,0,1,2.254.739l-.211.395A13.026,13.026,0,0,0,344.931,254.827Z" transform="translate(-197.628 -253.904)" fill="#fff"/>
        <path id="Caminho_50" data-name="Caminho 50" d="M354.838,254.827a9.494,9.494,0,0,0-2.294-.289,5.552,5.552,0,0,0-2.347.475,3.726,3.726,0,0,0-1.583,1.3,3.247,3.247,0,0,0-.554,1.833,2.806,2.806,0,0,0,.634,1.847,4.958,4.958,0,0,0,1.583,1.254,23.849,23.849,0,0,0,2.5,1.067,21.243,21.243,0,0,1,2.7,1.187,5.248,5.248,0,0,1,1.794,1.609,4.433,4.433,0,0,1,.724,2.612,5.146,5.146,0,0,1-.724,2.757,4.826,4.826,0,0,1-1.993,1.806,6.327,6.327,0,0,1-2.874.634,8.679,8.679,0,0,1-2.491-.343,9,9,0,0,1-1.623-.607q-.474-.264-1.582-.924l.264-.474a11.088,11.088,0,0,0,2.44,1.292,7.793,7.793,0,0,0,2.888.58,6.088,6.088,0,0,0,2.519-.527,4.556,4.556,0,0,0,1.911-1.6,4.4,4.4,0,0,0,.739-2.57,4,4,0,0,0-.687-2.4,5.006,5.006,0,0,0-1.714-1.5,20.1,20.1,0,0,0-2.637-1.134,22.475,22.475,0,0,1-2.572-1.1,5.2,5.2,0,0,1-1.662-1.346,3.141,3.141,0,0,1-.672-2.043,3.644,3.644,0,0,1,.659-2.149,4.419,4.419,0,0,1,1.794-1.465,5.858,5.858,0,0,1,2.506-.527,11.245,11.245,0,0,1,2.359.289,10.051,10.051,0,0,1,2.255.739l-.212.395A12.977,12.977,0,0,0,354.838,254.827Z" transform="translate(-194.321 -253.904)" fill="#fff"/>
      </g>
    </g>
    <g id="Grupo_8" data-name="Grupo 8" transform="translate(134.246 211.679)">
      <path id="Caminho_51" data-name="Caminho 51" d="M134.246,275.936l21.864-27.222-21.864-27.366,8.109-9.412,29.63,36.706-29.34,36.706Z" transform="translate(-134.246 -211.594)" fill="#c2d93c"/>
      <path id="Caminho_52" data-name="Caminho 52" d="M149.445,275.936l21.864-27.222-21.864-27.366,8.109-9.412,29.63,36.706-29.34,36.706Z" transform="translate(-129.173 -211.594)" fill="#becc81"/>
      <path id="Caminho_53" data-name="Caminho 53" d="M140.386,211.936l7.722,9.717h4.44l7.98-9.717Z" transform="translate(-132.197 -211.594)" fill="#d0de6d"/>
      <path id="Caminho_54" data-name="Caminho 54" d="M155.741,269.409l7.771-9.717h4.44l7.98,9.717Z" transform="translate(-127.072 -195.654)" fill="#b1c396"/>
      <path id="Caminho_55" data-name="Caminho 55" d="M164.9,275.673,187,248.586,165.138,221.22l8.109-9.412,29.63,36.706-30,36.877Z" transform="translate(-124.016 -211.636)" fill="#95bda4"/>
      <path id="Caminho_56" data-name="Caminho 56" d="M195.728,275.545l22.105-27.087-21.864-27.366,8.109-9.412,29.63,36.706-30,36.877Z" transform="translate(-113.725 -211.679)" fill="#2b5c79"/>
      <path id="Caminho_57" data-name="Caminho 57" d="M180.276,275.807l21.864-27.222L180.276,221.22l8.109-9.412,29.63,36.706-29.34,36.706Z" transform="translate(-118.883 -211.636)" fill="#4e9aa1"/>
      <path id="Caminho_58" data-name="Caminho 58" d="M171.217,211.808l7.722,9.717h4.44l7.98-9.717Z" transform="translate(-121.906 -211.636)" fill="#74a7a3"/>
      <path id="Caminho_59" data-name="Caminho 59" d="M186.573,269.28l7.771-9.717h4.44l7.98,9.717Z" transform="translate(-116.781 -195.697)" fill="#41778e"/>
    </g>
  </g>
</svg>
