<svg xmlns="http://www.w3.org/2000/svg" width="180.065" height="46.152" viewBox="0 0 180.065 46.152">
  <g id="Grupo_9" data-name="Grupo 9" transform="translate(-134.246 -211.679)">
    <g id="WINGS" transform="translate(212.438 217.202)">
      <g id="Grupo_6" data-name="Grupo 6">
        <path id="Caminho_35" data-name="Caminho 35" d="M255.332,236.77a7.408,7.408,0,0,1-.588,2.94,7.5,7.5,0,0,1-4.019,4.018,7.394,7.394,0,0,1-2.939.588,7.524,7.524,0,0,1-2.694-.491,7.263,7.263,0,0,1-2.325-1.439,7.231,7.231,0,0,1-2.334,1.439,7.583,7.583,0,0,1-2.7.491,7.4,7.4,0,0,1-2.94-.588,7.505,7.505,0,0,1-4.019-4.018,7.409,7.409,0,0,1-.588-2.94V218.8h5.037V236.77a2.561,2.561,0,0,0,.193.992,2.452,2.452,0,0,0,.535.807,2.5,2.5,0,0,0,4.1-.807,2.547,2.547,0,0,0,.194-.992V218.8h5.036V236.77a2.577,2.577,0,0,0,.193.992A2.465,2.465,0,0,0,246.8,239.1a2.527,2.527,0,0,0,2.765-.535,2.6,2.6,0,0,0,.544-.807,2.467,2.467,0,0,0,.2-.992V218.8h5.019Z" transform="translate(-230.184 -218.52)" fill="#fff"/>
        <path id="Caminho_36" data-name="Caminho 36" d="M269.383,243.966h-5.037V218.8h5.037Z" transform="translate(-236.503 -218.52)" fill="#fff"/>
        <path id="Caminho_37" data-name="Caminho 37" d="M294.178,243.966H288.79L279.085,227.4v16.566h-5.036V218.8h5.387l9.7,16.584V218.8h5.037Z" transform="translate(-238.298 -218.52)" fill="#fff"/>
        <path id="Caminho_38" data-name="Caminho 38" d="M321.982,241.357a12.935,12.935,0,0,1-8.406,3.089,12.687,12.687,0,0,1-3.448-.465,12.875,12.875,0,0,1-3.1-1.315,13.421,13.421,0,0,1-2.633-2.036A12.685,12.685,0,0,1,302.362,238a13.216,13.216,0,0,1-1.307-3.115,12.785,12.785,0,0,1-.465-3.457,12.594,12.594,0,0,1,.465-3.439,13.323,13.323,0,0,1,1.307-3.1,12.68,12.68,0,0,1,2.035-2.632,13.062,13.062,0,0,1,5.73-3.334,12.718,12.718,0,0,1,3.448-.465,12.935,12.935,0,0,1,8.406,3.089l-2.633,4.387a8.438,8.438,0,0,0-2.633-1.817,7.862,7.862,0,0,0-6.239-.026,8.236,8.236,0,0,0-2.536,1.711,8.064,8.064,0,0,0-1.72,2.527,7.655,7.655,0,0,0-.632,3.1,7.763,7.763,0,0,0,.632,3.124,8.111,8.111,0,0,0,4.255,4.264,7.662,7.662,0,0,0,3.1.632,7.412,7.412,0,0,0,1.843-.229,8.42,8.42,0,0,0,1.7-.632v-7.16h4.861Z" transform="translate(-243.207 -218.456)" fill="#fff"/>
        <path id="Caminho_39" data-name="Caminho 39" d="M327.582,226.346a7.251,7.251,0,0,1,.6-2.93,7.669,7.669,0,0,1,4.019-4.02,7.269,7.269,0,0,1,2.931-.6h11.547v5.037H335.128a2.491,2.491,0,0,0-2.51,2.509,2.559,2.559,0,0,0,.194.992,2.456,2.456,0,0,0,1.334,1.342,2.49,2.49,0,0,0,.982.193h5.036a7.43,7.43,0,0,1,2.941.588,7.512,7.512,0,0,1,4.018,4.019,7.623,7.623,0,0,1,0,5.87,7.588,7.588,0,0,1-1.615,2.4,7.669,7.669,0,0,1-2.4,1.623,7.324,7.324,0,0,1-2.941.6H328.985V238.93h11.179a2.488,2.488,0,0,0,2.317-1.527,2.529,2.529,0,0,0-.535-2.765,2.5,2.5,0,0,0-1.782-.728h-5.036a7.255,7.255,0,0,1-2.931-.6,7.647,7.647,0,0,1-4.019-4.028A7.317,7.317,0,0,1,327.582,226.346Z" transform="translate(-248.2 -218.52)" fill="#fff"/>
      </g>
    </g>
    <g id="WINGS-2" data-name="WINGS" transform="translate(214.291 246.131)">
      <g id="Grupo_7" data-name="Grupo 7">
        <path id="Caminho_40" data-name="Caminho 40" d="M238.565,254.168v.306h-5.786v5.318h5.158v.306h-5.158v5.383h-.322V254.168Z" transform="translate(-232.457 -253.99)" fill="#fff"/>
        <path id="Caminho_41" data-name="Caminho 41" d="M241.892,256.91a5.767,5.767,0,0,1,2.1-2.12,5.76,5.76,0,0,1,5.794,0,5.821,5.821,0,0,1,2.119,2.12,5.758,5.758,0,0,1,0,5.793,5.765,5.765,0,0,1-2.119,2.1,5.7,5.7,0,0,1-2.9.774,5.782,5.782,0,0,1-2.9-.75,5.588,5.588,0,0,1-2.1-2.063,5.928,5.928,0,0,1,0-5.858Zm.282,5.641a5.483,5.483,0,0,0,1.974,1.99,5.2,5.2,0,0,0,2.692.734,5.536,5.536,0,0,0,4.787-2.724,5.423,5.423,0,0,0,0-5.472,5.6,5.6,0,0,0-2.007-2.015,5.39,5.39,0,0,0-5.5.008,5.579,5.579,0,0,0-2.684,4.755A5.31,5.31,0,0,0,242.174,262.551Z" transform="translate(-234.059 -253.961)" fill="#fff"/>
        <path id="Caminho_42" data-name="Caminho 42" d="M264.54,265.482l-3.144-5.238a5.075,5.075,0,0,1-1.161.129h-1.788v5.109h-.323V254.168h2.321a3.937,3.937,0,0,1,1.492.314,3.047,3.047,0,0,1,1.28.991,2.74,2.74,0,0,1,.516,1.709,3.478,3.478,0,0,1-.491,1.829,2.671,2.671,0,0,1-1.524,1.152l3.192,5.319Zm-1.87-6.254a2.96,2.96,0,0,0,.741-2.031,2.572,2.572,0,0,0-.394-1.41,2.722,2.722,0,0,0-1.072-.967,3.211,3.211,0,0,0-1.483-.346h-2.014v5.592h1.741A3.176,3.176,0,0,0,262.67,259.228Z" transform="translate(-237.205 -253.99)" fill="#fff"/>
        <path id="Caminho_43" data-name="Caminho 43" d="M279.74,260.767a2.54,2.54,0,0,1,.7,1.8,2.637,2.637,0,0,1-.476,1.579,2.96,2.96,0,0,1-1.265,1,4.291,4.291,0,0,1-1.709.339H274.3V254.168h2.24a3.822,3.822,0,0,1,2.474.685,2.7,2.7,0,0,1,.829,2.2,3.246,3.246,0,0,1-.459,1.732,2.264,2.264,0,0,1-1.378,1.007A3.273,3.273,0,0,1,279.74,260.767Zm-5.117-1.1h2.321a2.49,2.49,0,0,0,1.95-.7,2.73,2.73,0,0,0,.628-1.893q0-2.594-2.965-2.594h-1.934Zm4.593,4.851a2.24,2.24,0,0,0,.9-1.9,2.336,2.336,0,0,0-.459-1.467,2.77,2.77,0,0,0-1.185-.887,4.046,4.046,0,0,0-1.515-.289h-2.337v5.222h2.337A3.654,3.654,0,0,0,279.216,264.515Z" transform="translate(-240.197 -253.99)" fill="#fff"/>
        <path id="Caminho_44" data-name="Caminho 44" d="M285.871,264.37a3.263,3.263,0,0,0,2.426.935,3.547,3.547,0,0,0,1.733-.419,2.982,2.982,0,0,0,1.2-1.217,3.9,3.9,0,0,0,.434-1.893v-7.607h.323v7.639a4.132,4.132,0,0,1-.483,2.055,3.221,3.221,0,0,1-1.322,1.306,4.248,4.248,0,0,1-3.779,0,3.2,3.2,0,0,1-1.3-1.3,4.171,4.171,0,0,1-.476-2.063v-7.639h.322v7.607A3.521,3.521,0,0,0,285.871,264.37Z" transform="translate(-242.106 -253.99)" fill="#fff"/>
        <path id="Caminho_45" data-name="Caminho 45" d="M301.175,254.54a5.814,5.814,0,0,0-1.4-.177,3.393,3.393,0,0,0-1.434.29,2.27,2.27,0,0,0-.967.8,1.979,1.979,0,0,0-.339,1.12,1.714,1.714,0,0,0,.387,1.129,3.039,3.039,0,0,0,.967.766,14.529,14.529,0,0,0,1.531.652,13.018,13.018,0,0,1,1.651.725,3.208,3.208,0,0,1,1.1.983,2.709,2.709,0,0,1,.443,1.6,3.145,3.145,0,0,1-.443,1.685,2.949,2.949,0,0,1-1.218,1.1,3.867,3.867,0,0,1-1.756.387,5.3,5.3,0,0,1-1.522-.209,5.527,5.527,0,0,1-.992-.371q-.29-.161-.967-.565l.161-.289a6.775,6.775,0,0,0,1.491.79,4.762,4.762,0,0,0,1.765.355,3.72,3.72,0,0,0,1.54-.322,2.784,2.784,0,0,0,1.168-.976,2.69,2.69,0,0,0,.452-1.571,2.442,2.442,0,0,0-.42-1.467,3.059,3.059,0,0,0-1.047-.919,12.234,12.234,0,0,0-1.611-.693,13.738,13.738,0,0,1-1.571-.669,3.174,3.174,0,0,1-1.016-.822,1.919,1.919,0,0,1-.411-1.249,2.227,2.227,0,0,1,.4-1.313,2.7,2.7,0,0,1,1.1-.895,3.58,3.58,0,0,1,1.531-.322,6.871,6.871,0,0,1,1.442.177,6.144,6.144,0,0,1,1.378.452l-.129.241A7.987,7.987,0,0,0,301.175,254.54Z" transform="translate(-244.25 -253.976)" fill="#fff"/>
        <path id="Caminho_46" data-name="Caminho 46" d="M307.587,254.168v11.314h-.323V254.168Z" transform="translate(-246.294 -253.99)" fill="#fff"/>
        <path id="Caminho_47" data-name="Caminho 47" d="M320.645,254.128v11.523h-.016L311.684,254.8l.016,10.638h-.322V253.95h.016l8.945,10.863V254.128Z" transform="translate(-247.055 -253.95)" fill="#fff"/>
        <path id="Caminho_48" data-name="Caminho 48" d="M333.219,254.168v.306h-6.431v5.14h5.8v.306h-5.8v5.254h6.656v.306h-6.978V254.168Z" transform="translate(-249.846 -253.99)" fill="#fff"/>
        <path id="Caminho_49" data-name="Caminho 49" d="M341.771,254.54a5.8,5.8,0,0,0-1.4-.177,3.388,3.388,0,0,0-1.434.29,2.277,2.277,0,0,0-.967.8,1.984,1.984,0,0,0-.338,1.12,1.71,1.71,0,0,0,.387,1.129,3.036,3.036,0,0,0,.967.766,14.679,14.679,0,0,0,1.531.652,13.031,13.031,0,0,1,1.652.725,3.2,3.2,0,0,1,1.1.983,2.7,2.7,0,0,1,.443,1.6,3.138,3.138,0,0,1-.443,1.685,2.942,2.942,0,0,1-1.217,1.1,3.869,3.869,0,0,1-1.756.387,5.3,5.3,0,0,1-1.523-.209,5.478,5.478,0,0,1-.992-.371q-.29-.161-.967-.565l.162-.289a6.756,6.756,0,0,0,1.491.79,4.762,4.762,0,0,0,1.765.355,3.714,3.714,0,0,0,1.539-.322,2.786,2.786,0,0,0,1.169-.976,2.69,2.69,0,0,0,.452-1.571,2.442,2.442,0,0,0-.42-1.467,3.066,3.066,0,0,0-1.047-.919,12.249,12.249,0,0,0-1.612-.693,13.722,13.722,0,0,1-1.571-.669,3.166,3.166,0,0,1-1.016-.822,1.919,1.919,0,0,1-.411-1.249,2.226,2.226,0,0,1,.4-1.313,2.7,2.7,0,0,1,1.1-.895,3.578,3.578,0,0,1,1.531-.322,6.872,6.872,0,0,1,1.443.177,6.135,6.135,0,0,1,1.377.452l-.129.241A7.961,7.961,0,0,0,341.771,254.54Z" transform="translate(-251.759 -253.976)" fill="#fff"/>
        <path id="Caminho_50" data-name="Caminho 50" d="M351.679,254.54a5.8,5.8,0,0,0-1.4-.177,3.393,3.393,0,0,0-1.434.29,2.277,2.277,0,0,0-.967.8,1.984,1.984,0,0,0-.338,1.12,1.714,1.714,0,0,0,.387,1.129,3.03,3.03,0,0,0,.967.766,14.578,14.578,0,0,0,1.531.652,12.978,12.978,0,0,1,1.652.725,3.207,3.207,0,0,1,1.1.983,2.709,2.709,0,0,1,.443,1.6,3.144,3.144,0,0,1-.443,1.685,2.949,2.949,0,0,1-1.218,1.1,3.867,3.867,0,0,1-1.756.387,5.3,5.3,0,0,1-1.522-.209,5.5,5.5,0,0,1-.992-.371q-.29-.161-.967-.565l.161-.289a6.776,6.776,0,0,0,1.491.79,4.762,4.762,0,0,0,1.765.355,3.72,3.72,0,0,0,1.54-.322,2.784,2.784,0,0,0,1.168-.976,2.69,2.69,0,0,0,.452-1.571,2.442,2.442,0,0,0-.42-1.467,3.059,3.059,0,0,0-1.047-.919,12.285,12.285,0,0,0-1.611-.693,13.733,13.733,0,0,1-1.571-.669,3.175,3.175,0,0,1-1.016-.822,1.919,1.919,0,0,1-.411-1.249,2.227,2.227,0,0,1,.4-1.313,2.7,2.7,0,0,1,1.1-.895,3.58,3.58,0,0,1,1.531-.322,6.872,6.872,0,0,1,1.442.177,6.143,6.143,0,0,1,1.378.452l-.13.241A7.931,7.931,0,0,0,351.679,254.54Z" transform="translate(-253.592 -253.976)" fill="#fff"/>
      </g>
    </g>
    <g id="Grupo_8" data-name="Grupo 8" transform="translate(134.246 211.679)">
      <path id="Caminho_51" data-name="Caminho 51" d="M134.246,251.045l13.36-16.634-13.36-16.723,4.955-5.751,18.106,22.43L139.378,256.8Z" transform="translate(-134.246 -211.727)" fill="#c2d93c"/>
      <path id="Caminho_52" data-name="Caminho 52" d="M149.445,251.045l13.36-16.634-13.36-16.723,4.955-5.751,18.106,22.43L154.577,256.8Z" transform="translate(-137.058 -211.727)" fill="#becc81"/>
      <path id="Caminho_53" data-name="Caminho 53" d="M140.386,211.936l4.719,5.938h2.713l4.876-5.938Z" transform="translate(-135.382 -211.727)" fill="#d0de6d"/>
      <path id="Caminho_54" data-name="Caminho 54" d="M155.741,265.629l4.748-5.938H163.2l4.876,5.938Z" transform="translate(-138.222 -220.56)" fill="#b1c396"/>
      <path id="Caminho_55" data-name="Caminho 55" d="M164.9,250.834,178.4,234.282l-13.36-16.723L170,211.808l18.106,22.43-18.332,22.534Z" transform="translate(-139.916 -211.703)" fill="#95bda4"/>
      <path id="Caminho_56" data-name="Caminho 56" d="M195.728,250.705l13.508-16.552-13.361-16.723,4.955-5.751,18.106,22.43L200.6,256.643Z" transform="translate(-145.619 -211.679)" fill="#2b5c79"/>
      <path id="Caminho_57" data-name="Caminho 57" d="M180.276,250.916l13.36-16.634-13.36-16.723,4.955-5.751,18.106,22.43-17.929,22.43Z" transform="translate(-142.761 -211.703)" fill="#4e9aa1"/>
      <path id="Caminho_58" data-name="Caminho 58" d="M171.217,211.808l4.719,5.938h2.713l4.876-5.938Z" transform="translate(-141.085 -211.703)" fill="#74a7a3"/>
      <path id="Caminho_59" data-name="Caminho 59" d="M186.573,265.5l4.748-5.938h2.713l4.876,5.938Z" transform="translate(-143.925 -220.536)" fill="#41778e"/>
    </g>
  </g>
</svg>
