<svg xmlns="http://www.w3.org/2000/svg" width="164.722" height="113.552" viewBox="0 0 164.722 113.552">
  <g id="Grupo_192" data-name="Grupo 192" transform="translate(-1095.946 -247.843)">
    <g id="Grupo_124" data-name="Grupo 124" transform="translate(1095.946 247.843)">
      <path id="Caminho_158" data-name="Caminho 158" d="M510.223,61.338H526.25a2.967,2.967,0,0,0,2.954-2.955V42.357a2.965,2.965,0,0,0-2.954-2.947H510.223a2.959,2.959,0,0,0-2.953,2.947V58.384a2.96,2.96,0,0,0,2.953,2.955m16.027,2.14H510.223a5.106,5.106,0,0,1-5.094-5.095V42.357a5.108,5.108,0,0,1,5.094-5.092H526.25a5.108,5.108,0,0,1,5.094,5.092V58.384a5.107,5.107,0,0,1-5.094,5.095" transform="translate(-423.113 -37.265)" fill="#2c80ff"/>
      <path id="Caminho_159" data-name="Caminho 159" d="M514.241,126.326h7.432a1.033,1.033,0,0,0,1.027-1.03v-7.43a1.033,1.033,0,0,0-1.027-1.028h-7.432a1.03,1.03,0,0,0-.726.3,1.01,1.01,0,0,0-.3.724v7.43a1.011,1.011,0,0,0,.3.727,1.03,1.03,0,0,0,.726.3m7.432,1.5h-7.432a2.5,2.5,0,0,1-1.78-.744h-.006a2.537,2.537,0,0,1-.743-1.787v-7.43a2.526,2.526,0,0,1,.743-1.783h.006a2.5,2.5,0,0,1,1.78-.744h7.432a2.539,2.539,0,0,1,2.526,2.527v7.43a2.539,2.539,0,0,1-2.526,2.531" transform="translate(-427.151 -85.163)" fill="#5fd92b"/>
      <path id="Caminho_160" data-name="Caminho 160" d="M301.2,227.323a2.782,2.782,0,0,0,2.762-2.757,2.124,2.124,0,0,0-1.388-2.251c-1.965-.729-1.493-.559-3.4-1.218a10.922,10.922,0,0,1-5.133-3.778,6.206,6.206,0,0,1-1.114-3.775,8.285,8.285,0,0,1,16.571,0H304a2.752,2.752,0,0,0-5.5.015,2.483,2.483,0,0,0,1.186,2.238,8.126,8.126,0,0,0,3.386,1.421,10.526,10.526,0,0,1,5.3,3.592,6.021,6.021,0,0,1,1.15,3.79,8.287,8.287,0,0,1-16.574,0h5.518a2.759,2.759,0,0,0,2.759,2.758Z" transform="translate(-292.928 -140.333)" fill="#fff"/>
      <path id="Caminho_161" data-name="Caminho 161" d="M354.307,205.411a13.788,13.788,0,0,1,11.527,21.4l2.335,2.321-3.891,3.879-2.335-2.3a13.531,13.531,0,0,1-7.585,2.282,13.8,13.8,0,0,1,0-27.594Zm3.873,13.766,3.589,3.573a8.274,8.274,0,1,0-7.463,4.7,8.211,8.211,0,0,0,3.575-.81l-3.593-3.574Z" transform="translate(-322.16 -140.412)" fill="#fff"/>
      <path id="Caminho_162" data-name="Caminho 162" d="M439.178,205.745V222.2a10.979,10.979,0,1,1-21.958,0V205.745h5.5v16.441a5.492,5.492,0,0,0,5.471,5.467,5.331,5.331,0,0,0,3.864-1.607,5.24,5.24,0,0,0,1.622-3.86V205.745Z" transform="translate(-369.181 -140.627)" fill="#fff"/>
      <path id="Caminho_163" data-name="Caminho 163" d="M481.231,228.008c-.609,1.387-1.236,2.761-1.863,4.148H473.5l12.372-27.735,12.414,27.735h-5.892c-.609-1.369-1.218-2.761-1.827-4.129h-9.3Zm7.1-4.807-2.407-5.675L483.5,223.2Z" transform="translate(-403.706 -139.814)" fill="#fff"/>
      <path id="Caminho_164" data-name="Caminho 164" d="M549.691,205.876a13.862,13.862,0,0,1,9.953,4.013c4.876,4.874,4.876,14.376,0,19.234a13.924,13.924,0,0,1-9.953,3.995h-6.742V205.895h6.742Zm.033,21.772a8.03,8.03,0,0,0,5.892-2.217,8.189,8.189,0,0,0-5.943-14.119h-1.257v16.336h1.308Z" transform="translate(-446.315 -140.707)" fill="#fff"/>
      <path id="Caminho_165" data-name="Caminho 165" d="M600.8,205.662h8.875a9.956,9.956,0,0,1,7.092,2.791,7.992,7.992,0,0,1,2.64,6.266v.844a8.269,8.269,0,0,1-1.726,5.148,6.889,6.889,0,0,1-3.912,2.774l6.166,9.5h-6.671l-6.979-10.667v10.667h-5.465Zm9.382,13.152a3.043,3.043,0,0,0,2.505-1.081,3.732,3.732,0,0,0,1.081-2.847,3.4,3.4,0,0,0-1.081-2.673,4.887,4.887,0,0,0-3.35-1.1h-3.067V218.8Z" transform="translate(-481.808 -140.576)" fill="#fff"/>
      <path id="Caminho_166" data-name="Caminho 166" d="M662.718,228.008c-.609,1.387-1.236,2.761-1.863,4.148h-5.877l12.381-27.735,12.408,27.735h-5.892c-.609-1.369-1.219-2.761-1.831-4.129h-9.293Zm7.092-4.807-2.4-5.675-2.421,5.675Z" transform="translate(-515.044 -139.814)" fill="#fff"/>
      <path id="Caminho_167" data-name="Caminho 167" d="M476.565,99.557h11.789a3.106,3.106,0,0,0,3.087-3.085V84.683a3.1,3.1,0,0,0-3.087-3.084H476.565a3.1,3.1,0,0,0-3.085,3.084V96.473a3.1,3.1,0,0,0,3.085,3.085m11.789,1.873H476.565a4.972,4.972,0,0,1-4.96-4.958V84.683a4.969,4.969,0,0,1,4.96-4.957h11.789a4.964,4.964,0,0,1,4.96,4.957V96.473a4.967,4.967,0,0,1-4.96,4.958" transform="translate(-402.546 -63.315)" fill="#f4c742"/>
      <path id="Caminho_168" data-name="Caminho 168" d="M436.21,132.418h16.027a2.96,2.96,0,0,0,2.95-2.952V113.439a2.96,2.96,0,0,0-2.95-2.951H436.21a2.96,2.96,0,0,0-2.95,2.951v16.027a2.96,2.96,0,0,0,2.95,2.952m16.027,2.14H436.21a5.1,5.1,0,0,1-5.091-5.092V113.439a5.1,5.1,0,0,1,5.091-5.091h16.027a5.1,5.1,0,0,1,5.094,5.091v16.027a5.1,5.1,0,0,1-5.094,5.092" transform="translate(-377.708 -80.874)" fill="#ff2665"/>
    </g>
    <path id="Caminho_589" data-name="Caminho 589" d="M-50.135-19.361c-1.2,0-1.931-1-1.931-2.918,0-2.047.624-3.136,1.887-3.136a2.491,2.491,0,0,1,2.061,1.147v3.8A2.588,2.588,0,0,1-50.135-19.361Zm3.107-9.8-1.089.61v3.208a2.709,2.709,0,0,0-2.149-1.016c-1.6,0-2.874,1.394-2.874,4.094s1.2,3.847,2.729,3.847a3.048,3.048,0,0,0,2.294-1.089v.929h1.089Zm3.049.044a.784.784,0,0,0-.8.784.781.781,0,0,0,.8.769.772.772,0,0,0,.755-.769A.775.775,0,0,0-43.98-29.116Zm.523,2.918h-1.089v7.622h1.089Zm8.188,0h-1.089v.857a2.709,2.709,0,0,0-2.149-1.016c-1.6,0-2.874,1.394-2.874,4.094s1.2,3.847,2.729,3.847a3.048,3.048,0,0,0,2.294-1.089v.392c0,1.771-.581,2.439-3.121,2.511l.348.827c2.831-.087,3.862-1.19,3.862-3.484Zm-3.107,6.838c-1.2,0-1.931-1-1.931-2.918,0-2.047.624-3.136,1.887-3.136a2.491,2.491,0,0,1,2.061,1.147v3.8A2.588,2.588,0,0,1-38.376-19.361Zm6.155-9.756a.784.784,0,0,0-.8.784.781.781,0,0,0,.8.769.772.772,0,0,0,.755-.769A.775.775,0,0,0-32.221-29.116ZM-31.7-26.2h-1.089v7.622H-31.7Zm5.763,0h-1.887V-29.16l-1.089.61V-26.2h-.944v.915h.944v5.139c0,1.263.508,1.728,1.452,1.728a3.435,3.435,0,0,0,1.408-.261l.073-.944a2.536,2.536,0,0,1-1.074.218c-.581,0-.769-.232-.769-.915v-4.965h1.887Zm4.079,6.9a1.429,1.429,0,0,1-1.553-1.626c0-.958.668-1.5,1.786-1.5a3.7,3.7,0,0,1,1.96.436v1.539A2.67,2.67,0,0,1-21.855-19.3Zm3.281-4.587c0-1.771-1.031-2.468-2.671-2.468a5.443,5.443,0,0,0-2.555.61l.406.886a3.979,3.979,0,0,1,2.076-.581,1.466,1.466,0,0,1,1.655,1.684v.9a4.089,4.089,0,0,0-1.9-.436c-1.51,0-2.918.726-2.918,2.439a2.239,2.239,0,0,0,2.439,2.439,3.143,3.143,0,0,0,2.381-1.089v.929h1.089Zm3.528-5.27-1.089.61v9.973h1.089Z" transform="translate(1274.629 377.171)" fill="#fff"/>
  </g>
</svg>
