<svg xmlns="http://www.w3.org/2000/svg" width="293.291" height="32.572" viewBox="0 0 293.291 32.572">
  <g id="Grupo_1117" data-name="Grupo 1117" transform="translate(-141 -44.5)">
    <g id="WINGS" transform="translate(202.19 49.497)">
      <g id="Grupo_6" data-name="Grupo 6">
        <path id="Caminho_35" data-name="Caminho 35" d="M252.542,234.777a6.587,6.587,0,0,1-.522,2.614,6.672,6.672,0,0,1-3.573,3.572,6.574,6.574,0,0,1-2.613.523,6.689,6.689,0,0,1-2.4-.436,6.457,6.457,0,0,1-2.067-1.28,6.43,6.43,0,0,1-2.075,1.28,6.742,6.742,0,0,1-2.4.436,6.575,6.575,0,0,1-2.614-.523,6.672,6.672,0,0,1-3.573-3.572,6.588,6.588,0,0,1-.522-2.614V218.8h4.478v15.977a2.278,2.278,0,0,0,.172.882,2.18,2.18,0,0,0,.475.717,2.227,2.227,0,0,0,3.643-.717,2.264,2.264,0,0,0,.172-.882V218.8H243.6v15.977a2.291,2.291,0,0,0,.172.882,2.192,2.192,0,0,0,1.185,1.193,2.247,2.247,0,0,0,2.458-.476,2.309,2.309,0,0,0,.483-.717,2.194,2.194,0,0,0,.18-.882V218.8h4.462Z" transform="translate(-230.184 -218.551)" fill="#fff"/>
        <path id="Caminho_36" data-name="Caminho 36" d="M268.824,241.174h-4.478V218.8h4.478Z" transform="translate(-239.592 -218.551)" fill="#fff"/>
        <path id="Caminho_37" data-name="Caminho 37" d="M291.945,241.174h-4.79l-8.629-14.728v14.728h-4.477V218.8h4.79l8.628,14.744V218.8h4.478Z" transform="translate(-242.264 -218.551)" fill="#fff"/>
        <path id="Caminho_38" data-name="Caminho 38" d="M319.609,238.817a11.5,11.5,0,0,1-7.474,2.746,11.28,11.28,0,0,1-3.066-.414,11.448,11.448,0,0,1-2.753-1.17,11.933,11.933,0,0,1-2.341-1.81,11.278,11.278,0,0,1-1.809-2.34A11.753,11.753,0,0,1,301,233.06a11.368,11.368,0,0,1-.413-3.074,11.2,11.2,0,0,1,.413-3.058,11.847,11.847,0,0,1,1.162-2.754,11.274,11.274,0,0,1,1.809-2.34,11.613,11.613,0,0,1,5.095-2.964,11.307,11.307,0,0,1,3.066-.414,11.5,11.5,0,0,1,7.474,2.746l-2.34,3.9a7.5,7.5,0,0,0-2.341-1.615,6.989,6.989,0,0,0-5.547-.023,7.324,7.324,0,0,0-2.254,1.521,7.17,7.17,0,0,0-1.529,2.247,6.805,6.805,0,0,0-.562,2.754,6.9,6.9,0,0,0,.562,2.777,7.211,7.211,0,0,0,3.783,3.791,6.813,6.813,0,0,0,2.754.562,6.59,6.59,0,0,0,1.638-.2,7.486,7.486,0,0,0,1.514-.562v-6.366h4.322Z" transform="translate(-249.573 -218.456)" fill="#fff"/>
        <path id="Caminho_39" data-name="Caminho 39" d="M327.582,225.509a6.447,6.447,0,0,1,.53-2.6,6.818,6.818,0,0,1,3.573-3.574,6.463,6.463,0,0,1,2.606-.53h10.266v4.478H334.291a2.215,2.215,0,0,0-2.232,2.231,2.275,2.275,0,0,0,.172.882,2.183,2.183,0,0,0,1.186,1.193,2.213,2.213,0,0,0,.873.172h4.477a6.606,6.606,0,0,1,2.614.522,6.679,6.679,0,0,1,3.572,3.573,6.778,6.778,0,0,1,0,5.219,6.745,6.745,0,0,1-1.435,2.13,6.817,6.817,0,0,1-2.137,1.443,6.512,6.512,0,0,1-2.614.53H328.83V236.7h9.939a2.212,2.212,0,0,0,2.06-1.357,2.248,2.248,0,0,0-.476-2.458,2.219,2.219,0,0,0-1.584-.647h-4.477a6.449,6.449,0,0,1-2.606-.53,6.8,6.8,0,0,1-3.573-3.581A6.505,6.505,0,0,1,327.582,225.509Z" transform="translate(-257.007 -218.551)" fill="#fff"/>
      </g>
    </g>
    <g id="Grupo_8" data-name="Grupo 8" transform="translate(141 44.587)">
      <path id="Caminho_51" data-name="Caminho 51" d="M134.246,240.125l9.63-11.99-9.63-12.054,3.572-4.145L150.868,228.1l-12.923,16.167Z" transform="translate(-134.246 -211.785)" fill="#c2d93c"/>
      <path id="Caminho_52" data-name="Caminho 52" d="M149.445,240.125l9.63-11.99-9.63-12.054,3.571-4.145L166.067,228.1l-12.923,16.167Z" transform="translate(-140.516 -211.785)" fill="#becc81"/>
      <path id="Caminho_53" data-name="Caminho 53" d="M140.386,211.936l3.4,4.28h1.956l3.515-4.28Z" transform="translate(-136.779 -211.785)" fill="#d0de6d"/>
      <path id="Caminho_54" data-name="Caminho 54" d="M155.741,263.971l3.423-4.28h1.956l3.515,4.28Z" transform="translate(-143.114 -231.486)" fill="#b1c396"/>
      <path id="Caminho_55" data-name="Caminho 55" d="M164.9,239.938l9.736-11.931L165,215.953l3.571-4.145,13.051,16.167-13.214,16.243Z" transform="translate(-146.891 -211.732)" fill="#95bda4"/>
      <path id="Caminho_56" data-name="Caminho 56" d="M195.728,239.809l9.736-11.931-9.63-12.054,3.572-4.145,13.051,16.167-13.214,16.243Z" transform="translate(-159.609 -211.679)" fill="#2b5c79"/>
      <path id="Caminho_57" data-name="Caminho 57" d="M180.276,240l9.63-11.99-9.63-12.054,3.571-4.145L196.9,227.975l-12.923,16.167Z" transform="translate(-153.235 -211.732)" fill="#4e9aa1"/>
      <path id="Caminho_58" data-name="Caminho 58" d="M171.217,211.808l3.4,4.28h1.956l3.515-4.28Z" transform="translate(-149.498 -211.732)" fill="#74a7a3"/>
      <path id="Caminho_59" data-name="Caminho 59" d="M186.573,263.843l3.423-4.28h1.956l3.515,4.28Z" transform="translate(-155.833 -231.433)" fill="#41778e"/>
    </g>
    <line id="Linha_92" data-name="Linha 92" y2="29.148" transform="translate(302.238 44.5)" fill="none" stroke="#c2d93c" stroke-width="1"/>
    <g id="WINGS-2" data-name="WINGS" transform="translate(313.95 53.934)">
      <g id="Grupo_7" data-name="Grupo 7">
        <path id="Caminho_40" data-name="Caminho 40" d="M239.806,254.168v.369h-6.961v6.4h6.205v.369h-6.205v6.477h-.387V254.168Z" transform="translate(-232.457 -253.954)" fill="#fff"/>
        <path id="Caminho_41" data-name="Caminho 41" d="M242.05,257.5a6.939,6.939,0,0,1,2.531-2.551,6.93,6.93,0,0,1,6.971,0,7,7,0,0,1,2.55,2.551,6.928,6.928,0,0,1,0,6.97,6.935,6.935,0,0,1-2.55,2.531,6.853,6.853,0,0,1-3.49.932,6.956,6.956,0,0,1-3.491-.9,6.722,6.722,0,0,1-2.521-2.482,7.132,7.132,0,0,1,0-7.049Zm.339,6.787a6.6,6.6,0,0,0,2.375,2.395,6.256,6.256,0,0,0,3.239.883,6.661,6.661,0,0,0,5.759-3.277,6.524,6.524,0,0,0,0-6.584,6.737,6.737,0,0,0-2.414-2.424,6.485,6.485,0,0,0-6.612.01,6.712,6.712,0,0,0-3.229,5.721A6.389,6.389,0,0,0,242.389,264.287Z" transform="translate(-232.625 -253.951)" fill="#fff"/>
        <path id="Caminho_42" data-name="Caminho 42" d="M265.843,267.781l-3.782-6.3a6.1,6.1,0,0,1-1.4.155h-2.152v6.147h-.388V254.168h2.793a4.736,4.736,0,0,1,1.794.378,3.666,3.666,0,0,1,1.541,1.192,3.3,3.3,0,0,1,.621,2.056,4.183,4.183,0,0,1-.591,2.2,3.213,3.213,0,0,1-1.834,1.387l3.841,6.4Zm-2.25-7.524a3.561,3.561,0,0,0,.891-2.444,3.1,3.1,0,0,0-.475-1.7,3.276,3.276,0,0,0-1.29-1.164,3.863,3.863,0,0,0-1.785-.416h-2.423v6.728h2.095A3.821,3.821,0,0,0,263.594,260.257Z" transform="translate(-232.955 -253.954)" fill="#fff"/>
        <path id="Caminho_43" data-name="Caminho 43" d="M280.845,262.108a3.056,3.056,0,0,1,.844,2.162,3.173,3.173,0,0,1-.573,1.9,3.562,3.562,0,0,1-1.522,1.2,5.162,5.162,0,0,1-2.056.408H274.3V254.168H277a4.6,4.6,0,0,1,2.977.824,3.245,3.245,0,0,1,1,2.648,3.906,3.906,0,0,1-.552,2.084,2.724,2.724,0,0,1-1.658,1.212A3.937,3.937,0,0,1,280.845,262.108Zm-6.156-1.328h2.793a3,3,0,0,0,2.346-.844,3.285,3.285,0,0,0,.756-2.278q0-3.121-3.567-3.121h-2.327Zm5.527,5.836a2.694,2.694,0,0,0,1.086-2.288,2.811,2.811,0,0,0-.552-1.765,3.334,3.334,0,0,0-1.426-1.067,4.869,4.869,0,0,0-1.823-.348h-2.811v6.283H277.5A4.4,4.4,0,0,0,280.215,266.617Z" transform="translate(-233.269 -253.954)" fill="#fff"/>
        <path id="Caminho_44" data-name="Caminho 44" d="M286.125,266.442a3.926,3.926,0,0,0,2.918,1.125,4.266,4.266,0,0,0,2.085-.5,3.589,3.589,0,0,0,1.444-1.464,4.687,4.687,0,0,0,.523-2.278v-9.153h.388v9.191a4.973,4.973,0,0,1-.581,2.472,3.875,3.875,0,0,1-1.591,1.571,5.111,5.111,0,0,1-4.547,0,3.844,3.844,0,0,1-1.57-1.561,5.018,5.018,0,0,1-.573-2.482v-9.191h.387v9.153A4.236,4.236,0,0,0,286.125,266.442Z" transform="translate(-233.469 -253.954)" fill="#fff"/>
        <path id="Caminho_45" data-name="Caminho 45" d="M302.184,254.631a7,7,0,0,0-1.688-.213,4.082,4.082,0,0,0-1.726.349,2.731,2.731,0,0,0-1.163.959,2.38,2.38,0,0,0-.408,1.347,2.063,2.063,0,0,0,.466,1.358,3.656,3.656,0,0,0,1.164.922,17.491,17.491,0,0,0,1.842.784,15.667,15.667,0,0,1,1.987.873,3.859,3.859,0,0,1,1.319,1.183,3.26,3.26,0,0,1,.533,1.92,3.784,3.784,0,0,1-.533,2.027,3.548,3.548,0,0,1-1.465,1.328,4.651,4.651,0,0,1-2.113.466,6.378,6.378,0,0,1-1.832-.252,6.652,6.652,0,0,1-1.193-.446q-.349-.194-1.163-.68l.194-.348a8.155,8.155,0,0,0,1.794.95,5.73,5.73,0,0,0,2.123.427,4.477,4.477,0,0,0,1.852-.387,3.349,3.349,0,0,0,1.405-1.175,3.237,3.237,0,0,0,.543-1.89,2.939,2.939,0,0,0-.505-1.765,3.68,3.68,0,0,0-1.26-1.105,14.717,14.717,0,0,0-1.939-.834,16.527,16.527,0,0,1-1.891-.805,3.819,3.819,0,0,1-1.222-.989,2.309,2.309,0,0,1-.494-1.5,2.679,2.679,0,0,1,.484-1.58,3.249,3.249,0,0,1,1.319-1.077,4.307,4.307,0,0,1,1.842-.387,8.271,8.271,0,0,1,1.735.213,7.393,7.393,0,0,1,1.658.543l-.155.29A9.611,9.611,0,0,0,302.184,254.631Z" transform="translate(-233.694 -253.953)" fill="#fff"/>
        <path id="Caminho_46" data-name="Caminho 46" d="M307.652,254.168v13.613h-.388V254.168Z" transform="translate(-233.908 -253.954)" fill="#fff"/>
        <path id="Caminho_47" data-name="Caminho 47" d="M322.527,254.164v13.864h-.02l-10.762-13.05.02,12.8h-.387V253.95h.019l10.762,13.07V254.164Z" transform="translate(-233.988 -253.95)" fill="#fff"/>
        <path id="Caminho_48" data-name="Caminho 48" d="M334.59,254.168v.369h-7.737v6.185h6.98v.369h-6.98v6.322h8.009v.369h-8.4V254.168Z" transform="translate(-234.28 -253.954)" fill="#fff"/>
        <path id="Caminho_49" data-name="Caminho 49" d="M342.78,254.631a6.982,6.982,0,0,0-1.687-.213,4.076,4.076,0,0,0-1.726.349,2.74,2.74,0,0,0-1.164.959,2.387,2.387,0,0,0-.407,1.347,2.058,2.058,0,0,0,.466,1.358,3.652,3.652,0,0,0,1.163.922,17.663,17.663,0,0,0,1.842.784,15.691,15.691,0,0,1,1.988.873,3.846,3.846,0,0,1,1.318,1.183,3.252,3.252,0,0,1,.533,1.92,3.774,3.774,0,0,1-.533,2.027,3.538,3.538,0,0,1-1.464,1.328,4.653,4.653,0,0,1-2.113.466,6.378,6.378,0,0,1-1.832-.252,6.588,6.588,0,0,1-1.193-.446q-.349-.194-1.164-.68l.2-.348a8.131,8.131,0,0,0,1.794.95,5.73,5.73,0,0,0,2.123.427,4.47,4.47,0,0,0,1.851-.387,3.352,3.352,0,0,0,1.406-1.175,3.237,3.237,0,0,0,.543-1.89,2.938,2.938,0,0,0-.5-1.765,3.688,3.688,0,0,0-1.26-1.105,14.743,14.743,0,0,0-1.94-.834,16.5,16.5,0,0,1-1.89-.805,3.809,3.809,0,0,1-1.222-.989,2.31,2.31,0,0,1-.494-1.5,2.679,2.679,0,0,1,.484-1.58,3.249,3.249,0,0,1,1.319-1.077,4.306,4.306,0,0,1,1.842-.387,8.271,8.271,0,0,1,1.736.213,7.384,7.384,0,0,1,1.657.543l-.155.29A9.581,9.581,0,0,0,342.78,254.631Z" transform="translate(-234.481 -253.953)" fill="#fff"/>
        <path id="Caminho_50" data-name="Caminho 50" d="M352.687,254.631a6.982,6.982,0,0,0-1.687-.213,4.082,4.082,0,0,0-1.726.349,2.74,2.74,0,0,0-1.164.959,2.388,2.388,0,0,0-.407,1.347,2.063,2.063,0,0,0,.466,1.358,3.645,3.645,0,0,0,1.164.922,17.542,17.542,0,0,0,1.842.784,15.635,15.635,0,0,1,1.988.873,3.857,3.857,0,0,1,1.319,1.183,3.259,3.259,0,0,1,.533,1.92,3.783,3.783,0,0,1-.533,2.027,3.547,3.547,0,0,1-1.465,1.328,4.651,4.651,0,0,1-2.113.466,6.378,6.378,0,0,1-1.832-.252,6.617,6.617,0,0,1-1.193-.446q-.349-.194-1.163-.68l.194-.348a8.152,8.152,0,0,0,1.794.95,5.73,5.73,0,0,0,2.123.427,4.477,4.477,0,0,0,1.852-.387,3.349,3.349,0,0,0,1.405-1.175,3.237,3.237,0,0,0,.543-1.89,2.939,2.939,0,0,0-.505-1.765,3.68,3.68,0,0,0-1.26-1.105,14.779,14.779,0,0,0-1.939-.834,16.519,16.519,0,0,1-1.891-.805,3.819,3.819,0,0,1-1.222-.989,2.309,2.309,0,0,1-.494-1.5,2.679,2.679,0,0,1,.484-1.58,3.248,3.248,0,0,1,1.319-1.077,4.306,4.306,0,0,1,1.842-.387,8.27,8.27,0,0,1,1.735.213,7.391,7.391,0,0,1,1.658.543l-.156.29A9.541,9.541,0,0,0,352.687,254.631Z" transform="translate(-234.673 -253.953)" fill="#fff"/>
      </g>
    </g>
  </g>
</svg>
