<svg xmlns="http://www.w3.org/2000/svg" width="138.661" height="99.044" viewBox="0 0 138.661 99.044">
  <g id="Grupo_1126" data-name="Grupo 1126" transform="translate(-756.751 -4306)">
    <path id="Caminho_1506" data-name="Caminho 1506" d="M135.233,12H11.428A7.428,7.428,0,0,0,4,19.428v84.187a7.428,7.428,0,0,0,7.428,7.428h123.8a7.428,7.428,0,0,0,7.428-7.428V19.428A7.428,7.428,0,0,0,135.233,12ZM8.952,19.428a2.476,2.476,0,0,1,2.476-2.476h123.8a2.476,2.476,0,0,1,2.476,2.476v7.428H8.952Zm128.757,84.187a2.476,2.476,0,0,1-2.476,2.476H11.428a2.476,2.476,0,0,1-2.476-2.476V31.809H137.709Z" transform="translate(752.751 4294)" fill="#18608b"/>
    <path id="Caminho_1507" data-name="Caminho 1507" d="M56.476,15h0a2.476,2.476,0,1,0,2.476,2.476A2.476,2.476,0,0,0,56.476,15Z" transform="translate(826.556 4298.428)" fill="#18608b"/>
    <path id="Caminho_1508" data-name="Caminho 1508" d="M52.476,15h0a2.476,2.476,0,1,0,2.476,2.476A2.476,2.476,0,0,0,52.476,15Z" transform="translate(820.651 4298.428)" fill="#18608b"/>
    <path id="Caminho_1509" data-name="Caminho 1509" d="M48.476,15h0a2.476,2.476,0,1,0,2.476,2.476A2.476,2.476,0,0,0,48.476,15Z" transform="translate(814.747 4298.428)" fill="#18608b"/>
    <path id="Caminho_1510" data-name="Caminho 1510" d="M10.476,26.952H27.809a2.476,2.476,0,0,0,0-4.952H10.476a2.476,2.476,0,1,0,0,4.952Z" transform="translate(758.655 4308.761)" fill="#18608b"/>
    <path id="Caminho_1511" data-name="Caminho 1511" d="M10.476,30.952H27.809a2.476,2.476,0,0,0,0-4.952H10.476a2.476,2.476,0,1,0,0,4.952Z" transform="translate(758.655 4314.665)" fill="#18608b"/>
    <path id="Caminho_1512" data-name="Caminho 1512" d="M10.476,34.952H27.809a2.476,2.476,0,0,0,0-4.952H10.476a2.476,2.476,0,1,0,0,4.952Z" transform="translate(758.655 4320.57)" fill="#18608b"/>
    <path id="Caminho_1513" data-name="Caminho 1513" d="M10.476,38.952H27.809a2.476,2.476,0,0,0,0-4.952H10.476a2.476,2.476,0,0,0,0,4.952Z" transform="translate(758.655 4326.474)" fill="#18608b"/>
    <path id="Caminho_1514" data-name="Caminho 1514" d="M40.447,50.237H62.286a2.458,2.458,0,0,0,2.427-2.922,29.49,29.49,0,0,0-7.428-14.857l2.055-4.507H70.16a2.476,2.476,0,1,0,0-4.952H57.779a2.476,2.476,0,0,0-2.229,1.387l-2.228,4.581A29.713,29.713,0,0,0,40.942,23.5a2.458,2.458,0,0,0-2.922,2.427V47.761a2.476,2.476,0,0,0,2.427,2.476Zm2.476-21.146A24.934,24.934,0,0,1,59.116,45.285H42.923Z" transform="translate(802.967 4310.237)" fill="#18608b"/>
    <path id="Caminho_1515" data-name="Caminho 1515" d="M56.476,27.952h0A2.476,2.476,0,1,0,54,25.476,2.476,2.476,0,0,0,56.476,27.952Z" transform="translate(826.556 4310.237)" fill="#18608b"/>
    <path id="Caminho_1516" data-name="Caminho 1516" d="M60.9,26H53.476a2.476,2.476,0,1,0,0,4.952H60.9A2.476,2.476,0,1,0,60.9,26Z" transform="translate(822.128 4314.665)" fill="#18608b"/>
    <path id="Caminho_1517" data-name="Caminho 1517" d="M37.268,71.163,34.321,77.2H23.476a2.476,2.476,0,1,0,0,4.952h12.38a2.476,2.476,0,0,0,2.228-1.387l2.947-6.042a29.713,29.713,0,0,0,48.8-16.887,2.458,2.458,0,0,0-2.427-2.922H58.141V25.652a2.458,2.458,0,0,0-2.922-2.427,29.713,29.713,0,0,0-17.8,47.739ZM53.189,28.822V57.4a2.476,2.476,0,0,0,2.476,2.476H84.24a24.761,24.761,0,1,1-31.05-31.05Z" transform="translate(777.845 4310.506)" fill="#18608b"/>
    <path id="Caminho_1518" data-name="Caminho 1518" d="M19.476,49.952a2.476,2.476,0,1,0,0-4.952h0a2.476,2.476,0,1,0,0,4.952Z" transform="translate(771.94 4342.711)" fill="#18608b"/>
    <path id="Caminho_1519" data-name="Caminho 1519" d="M19.476,46.952H26.9A2.476,2.476,0,1,0,26.9,42H19.476a2.476,2.476,0,1,0,0,4.952Z" transform="translate(771.94 4338.283)" fill="#18608b"/>
  </g>
</svg>
