<svg xmlns="http://www.w3.org/2000/svg" xmlns:xlink="http://www.w3.org/1999/xlink" version="1.1" x="0px" y="0px" viewBox="0 0 100 125" style="enable-background:new 0 0 100 100;" xml:space="preserve"><g><path d="M52.586,32.1h4.906c0.829,0,1.5-0.671,1.5-1.5s-0.671-1.5-1.5-1.5h-4.906c-0.829,0-1.5,0.671-1.5,1.5   S51.757,32.1,52.586,32.1z"/><path d="M70.25,29.1h-6.248c-0.829,0-1.5,0.671-1.5,1.5s0.671,1.5,1.5,1.5h6.248c0.829,0,1.5-0.671,1.5-1.5S71.079,29.1,70.25,29.1   z"/><path d="M39.667,40.7H29.75c-0.829,0-1.5,0.671-1.5,1.5s0.671,1.5,1.5,1.5h9.917c0.829,0,1.5-0.671,1.5-1.5   S40.495,40.7,39.667,40.7z"/><path d="M70.25,40.7H45.666c-0.829,0-1.5,0.671-1.5,1.5s0.671,1.5,1.5,1.5H70.25c0.829,0,1.5-0.671,1.5-1.5S71.079,40.7,70.25,40.7   z"/><path d="M54,52.3H29.75c-0.829,0-1.5,0.671-1.5,1.5s0.671,1.5,1.5,1.5H54c0.829,0,1.5-0.671,1.5-1.5S54.829,52.3,54,52.3z"/><path d="M70.25,52.3h-9.916c-0.829,0-1.5,0.671-1.5,1.5s0.671,1.5,1.5,1.5h9.916c0.829,0,1.5-0.671,1.5-1.5S71.079,52.3,70.25,52.3   z"/><path d="M29.75,63.9c-0.829,0-1.5,0.671-1.5,1.5s0.671,1.5,1.5,1.5h8.583c0.829,0,1.5-0.671,1.5-1.5s-0.671-1.5-1.5-1.5H29.75z"/><path d="M42.833,65.4c0,0.829,0.671,1.5,1.5,1.5h11.001c0.829,0,1.5-0.671,1.5-1.5s-0.671-1.5-1.5-1.5H44.333   C43.504,63.9,42.833,64.571,42.833,65.4z"/><path d="M70.25,63.9h-9.582c-0.829,0-1.5,0.671-1.5,1.5s0.671,1.5,1.5,1.5h9.582c0.829,0,1.5-0.671,1.5-1.5S71.079,63.9,70.25,63.9   z"/><path d="M48,75.5H29.75c-0.829,0-1.5,0.671-1.5,1.5s0.671,1.5,1.5,1.5H48c0.829,0,1.5-0.671,1.5-1.5S48.829,75.5,48,75.5z"/><path d="M70.25,75.5H53.667c-0.829,0-1.5,0.671-1.5,1.5s0.671,1.5,1.5,1.5H70.25c0.829,0,1.5-0.671,1.5-1.5S71.079,75.5,70.25,75.5   z"/><path d="M44.181,35.785c0.829,0,1.5-0.671,1.5-1.5V16c0-0.829-0.671-1.5-1.5-1.5H28.896c-0.829,0-1.5,0.671-1.5,1.5v18.285   c0,0.829,0.671,1.5,1.5,1.5H44.181z M30.396,17.5h12.285v15.285H30.396V17.5z"/><path d="M82.562,19.848c-0.007-0.048-0.014-0.095-0.026-0.142c-0.011-0.046-0.026-0.091-0.042-0.136   c-0.017-0.047-0.033-0.094-0.054-0.139c-0.019-0.042-0.043-0.081-0.066-0.122c-0.026-0.044-0.052-0.088-0.083-0.129   c-0.026-0.036-0.055-0.069-0.085-0.103c-0.037-0.042-0.074-0.082-0.115-0.119c-0.014-0.013-0.025-0.029-0.04-0.041L65.967,5.354   c-0.019-0.016-0.04-0.026-0.059-0.041c-0.044-0.034-0.089-0.065-0.136-0.093c-0.04-0.024-0.081-0.046-0.122-0.066   c-0.044-0.021-0.089-0.04-0.135-0.057c-0.048-0.018-0.097-0.033-0.146-0.045c-0.043-0.011-0.086-0.02-0.13-0.027   c-0.056-0.009-0.112-0.014-0.169-0.017C65.046,5.006,65.024,5,65,5H21.479c-2.24,0-4.063,1.822-4.063,4.063v81.875   c0,2.24,1.822,4.063,4.063,4.063h57.042c2.24,0,4.063-1.822,4.063-4.063V20.063c0-0.021-0.005-0.041-0.006-0.062   C82.575,19.95,82.569,19.899,82.562,19.848z M66.5,9.727l10.478,8.837H66.5V9.727z M78.521,92H21.479   c-0.586,0-1.063-0.477-1.063-1.063V9.063C20.417,8.477,20.893,8,21.479,8H63.5v12.063c0,0.829,0.671,1.5,1.5,1.5h14.583v69.374   C79.583,91.523,79.107,92,78.521,92z"/></g><text x="0" y="115" fill="#000000" font-size="5px" font-weight="bold" font-family="'Helvetica Neue', Helvetica, Arial-Unicode, Arial, Sans-serif">Created by Artem Yurov</text><text x="0" y="120" fill="#000000" font-size="5px" font-weight="bold" font-family="'Helvetica Neue', Helvetica, Arial-Unicode, Arial, Sans-serif">from the Noun Project</text></svg>