<svg xmlns="http://www.w3.org/2000/svg" viewBox="0 0 66 82.5" x="0px" y="0px"><title>Artboard 72</title><path d="M59,33.62V4a3,3,0,0,0-3-3H4A3,3,0,0,0,1,4V40a3,3,0,0,0,3,3H29.46A18,18,0,1,0,65,47,18,18,0,0,0,59,33.62ZM4,41a1,1,0,0,1-1-1V4A1,1,0,0,1,4,3H56a1,1,0,0,1,1,1V32a18,18,0,0,0-26.95,9ZM47,63A16,16,0,1,1,63,47,16,16,0,0,1,47,63Z"/><path d="M59.15,53.93a13.9,13.9,0,0,0,0-13.86s0,0,0-.07,0,0-.06-.07a14,14,0,0,0-5-5s0,0-.07-.06,0,0-.07,0a13.9,13.9,0,0,0-13.86,0s0,0-.07,0,0,0-.07.06a14,14,0,0,0-5,5s0,0-.06.07,0,0,0,.07a13.9,13.9,0,0,0,0,13.86s0,0,0,.07a.44.44,0,0,0,.08.11,14,14,0,0,0,5,5s0,0,.07.07l.1,0a13.92,13.92,0,0,0,13.8,0l.1,0s0-.05.07-.07a14,14,0,0,0,5-5,.44.44,0,0,0,.08-.11S59.14,54,59.15,53.93Zm-5.31,2.92L53.37,56a1,1,0,1,0-1.74,1l.48.81A11.87,11.87,0,0,1,48,59V58a1,1,0,0,0-2,0v1a11.87,11.87,0,0,1-4.11-1.11l.48-.81a1,1,0,1,0-1.74-1l-.47.82a12.3,12.3,0,0,1-3-3l.82-.47a1,1,0,1,0-1-1.74l-.81.48A11.87,11.87,0,0,1,35.05,48h1a1,1,0,0,0,0-2h-1a11.87,11.87,0,0,1,1.11-4.11l.81.48a1,1,0,1,0,1-1.74l-.82-.47a12.3,12.3,0,0,1,3-3l.47.82a1,1,0,0,0,1.74-1l-.48-.81A11.87,11.87,0,0,1,46,35.05v1a1,1,0,0,0,2,0v-1a11.87,11.87,0,0,1,4.11,1.11l-.48.81a1,1,0,0,0,1.74,1l.47-.82a12.3,12.3,0,0,1,3,3l-.82.47a1,1,0,0,0,1,1.74l.81-.48A11.87,11.87,0,0,1,59,46H58a1,1,0,0,0,0,2h1a11.87,11.87,0,0,1-1.11,4.11L57,51.63a1,1,0,0,0-1,1.74l.82.47A12.3,12.3,0,0,1,53.84,56.85Z"/><path d="M50,46H48V41a1,1,0,0,0-2,0v6a1,1,0,0,0,1,1h3a1,1,0,0,0,0-2Z"/><path d="M40.38,18.78a1,1,0,0,0,1.29,0L51,10.35V12a1,1,0,0,0,2,0V8a1,1,0,0,0-1-1H48a1,1,0,0,0,0,2h1.51L41,16.69l-4.34-3.47a1,1,0,0,0-1.22,0L24,21.74l-4.4-3.52a1,1,0,0,0-1.21,0l-11,8a1,1,0,0,0-.22,1.4A1,1,0,0,0,8,28a1,1,0,0,0,.59-.19L19,20.26l4.41,3.52a1,1,0,0,0,1.22,0L36,15.26Z"/><path d="M8,32a1,1,0,0,0-1,1v3a1,1,0,0,0,2,0V33A1,1,0,0,0,8,32Z"/><path d="M13,29a1,1,0,0,0-1,1v6a1,1,0,0,0,2,0V30A1,1,0,0,0,13,29Z"/><path d="M18,25a1,1,0,0,0-1,1V36a1,1,0,0,0,2,0V26A1,1,0,0,0,18,25Z"/><path d="M23,29a1,1,0,0,0-1,1v6a1,1,0,0,0,2,0V30A1,1,0,0,0,23,29Z"/><path d="M28,25a1,1,0,0,0-1,1V36a1,1,0,0,0,2,0V26A1,1,0,0,0,28,25Z"/><path d="M33,23a1,1,0,0,0-1,1v8a1,1,0,0,0,2,0V24A1,1,0,0,0,33,23Z"/><path d="M38,22a1,1,0,0,0-1,1v5a1,1,0,0,0,2,0V23A1,1,0,0,0,38,22Z"/><path d="M43,23a1,1,0,0,0-1,1v2a1,1,0,0,0,2,0V24A1,1,0,0,0,43,23Z"/><path d="M48,19a1,1,0,0,0-1,1v6a1,1,0,0,0,2,0V20A1,1,0,0,0,48,19Z"/><path d="M52,18v9a1,1,0,0,0,2,0V18a1,1,0,0,0-2,0Z"/><text x="0" y="81" fill="#000000" font-size="5px" font-weight="bold" font-family="'Helvetica Neue', Helvetica, Arial-Unicode, Arial, Sans-serif">Created by Pedro</text><text x="0" y="86" fill="#000000" font-size="5px" font-weight="bold" font-family="'Helvetica Neue', Helvetica, Arial-Unicode, Arial, Sans-serif">from the Noun Project</text></svg>