<svg id="Grupo_1112" data-name="Grupo 1112" xmlns="http://www.w3.org/2000/svg" width="57.433" height="57.433" viewBox="0 0 57.433 57.433">
  <path id="Caminho_1499" data-name="Caminho 1499" d="M8.137,37.241c-2.038,5.112-2.1,9.408.273,11.781a6.835,6.835,0,0,0,5.014,1.794,18.773,18.773,0,0,0,6.768-1.52c2.173,5.055,5.168,8.137,8.524,8.137s6.351-3.081,8.524-8.137a18.774,18.774,0,0,0,6.768,1.52,6.837,6.837,0,0,0,5.014-1.793c2.373-2.373,2.311-6.67.273-11.781,5.056-2.173,8.137-5.168,8.137-8.524s-3.082-6.351-8.137-8.524c2.038-5.112,2.1-9.408-.273-11.781S42.352,6.1,37.24,8.137C35.067,3.081,32.072,0,28.716,0s-6.351,3.082-8.524,8.137c-5.112-2.038-9.408-2.1-11.781.273S6.1,15.08,8.137,20.192C3.082,22.366,0,25.361,0,28.716S3.082,35.067,8.137,37.241ZM9.68,47.753C7.831,45.9,8.022,42.284,9.8,37.9a45.2,45.2,0,0,0,7.722,2.009,45.206,45.206,0,0,0,2.009,7.722c-4.385,1.78-8,1.971-9.854.123Zm6.952-17.078q-.786-.98-1.506-1.958.72-.977,1.506-1.958c-.018.647-.03,1.3-.03,1.958s.012,1.311.03,1.958Zm-2.61-3.506a44.4,44.4,0,0,1-3.489-5.984,44.4,44.4,0,0,1,6.7-1.764q-.294,2.1-.454,4.35-1.475,1.7-2.755,3.4Zm2.755,6.494q.158,2.244.454,4.35a44.4,44.4,0,0,1-6.7-1.764,44.4,44.4,0,0,1,3.489-5.984Q15.3,31.96,16.777,33.662Zm4.642-12.243Q22.936,19.9,24.5,18.531q2.069-.131,4.221-.134t4.221.134q1.554,1.369,3.076,2.888T38.9,24.5q.131,2.068.134,4.219T38.9,32.936q-1.37,1.555-2.888,3.078T32.936,38.9q-2.068.131-4.219.134T24.5,38.9q-1.555-1.37-3.078-2.888t-2.888-3.078q-.131-2.068-.134-4.219t.134-4.219Q19.9,22.942,21.419,21.419Zm-2.633.137q.137-1.249.32-2.45,1.2-.182,2.449-.32c-.47.445-.939.9-1.406,1.364s-.918.936-1.364,1.406Zm7.967-4.924q.982-.788,1.963-1.508.98.722,1.963,1.508c-.649-.018-1.3-.03-1.963-.03S27.4,16.614,26.753,16.632Zm9.124,2.155q1.249.137,2.45.32.182,1.2.32,2.45c-.445-.47-.9-.939-1.364-1.406S36.347,19.232,35.877,18.786Zm2.769,17.091q-.137,1.249-.32,2.45-1.2.182-2.447.319.7-.667,1.4-1.363c.466-.466.918-.936,1.364-1.406ZM30.675,40.8q-.98.786-1.958,1.506-.977-.72-1.958-1.506c.647.018,1.3.03,1.958.03S30.027,40.819,30.675,40.8Zm-9.122-2.155q-1.247-.137-2.447-.319-.182-1.2-.32-2.45c.445.47.9.939,1.364,1.406S21.083,38.2,21.553,38.646ZM19.42,40.2q2.1.294,4.348.454,1.7,1.475,3.4,2.756A44.392,44.392,0,0,1,21.184,46.9a44.4,44.4,0,0,1-1.764-6.7Zm9.3,15.436c-2.614,0-5.039-2.694-6.88-7.053a45.26,45.26,0,0,0,6.881-4.043,45.254,45.254,0,0,0,6.88,4.043C33.755,52.944,31.331,55.638,28.716,55.638ZM36.248,46.9a44.4,44.4,0,0,1-5.982-3.488q1.7-1.279,3.4-2.757,2.243-.158,4.348-.454A44.4,44.4,0,0,1,36.248,46.9Zm11.5.853C45.9,49.6,42.283,49.411,37.9,47.631a45.206,45.206,0,0,0,2.009-7.723A45.2,45.2,0,0,0,47.63,37.9c1.781,4.385,1.972,8.005.123,9.854ZM40.8,26.758q.786.98,1.506,1.958-.72.977-1.506,1.958c.018-.647.03-1.3.03-1.958S40.819,27.405,40.8,26.758Zm-.145-2.987q-.158-2.244-.454-4.35a44.4,44.4,0,0,1,6.7,1.764,44.4,44.4,0,0,1-3.489,5.984Q42.132,25.473,40.656,23.771Zm0,9.891q1.475-1.7,2.755-3.4A44.4,44.4,0,0,1,46.9,36.248a44.4,44.4,0,0,1-6.7,1.764Q40.5,35.909,40.656,33.662Zm14.982-4.945c0,2.615-2.695,5.04-7.055,6.881a45.2,45.2,0,0,0-4.04-6.881,45.2,45.2,0,0,0,4.04-6.881C52.943,23.677,55.638,26.1,55.638,28.716ZM43.992,8.377a5.135,5.135,0,0,1,3.761,1.3c1.849,1.849,1.658,5.469-.123,9.854a45.205,45.205,0,0,0-7.722-2.009A45.205,45.205,0,0,0,37.9,9.8a16.811,16.811,0,0,1,6.093-1.425Zm-5.979,8.854q-2.1-.294-4.351-.454-1.7-1.474-3.4-2.754a44.431,44.431,0,0,1,5.983-3.49,44.4,44.4,0,0,1,1.764,6.7Zm-9.3-15.436c2.615,0,5.04,2.695,6.881,7.054a45.2,45.2,0,0,0-6.881,4.04,45.208,45.208,0,0,0-6.881-4.04C23.677,4.49,26.1,1.795,28.716,1.795Zm-7.532,8.738a44.434,44.434,0,0,1,5.982,3.49q-1.695,1.279-3.4,2.754-2.244.158-4.35.454a44.4,44.4,0,0,1,1.764-6.7ZM9.68,9.68a5.133,5.133,0,0,1,3.761-1.3A16.81,16.81,0,0,1,19.534,9.8a45.205,45.205,0,0,0-2.009,7.722A45.2,45.2,0,0,0,9.8,19.534C8.022,15.149,7.831,11.529,9.68,9.68ZM8.85,21.835a45.2,45.2,0,0,0,4.04,6.881A45.2,45.2,0,0,0,8.85,35.6c-4.36-1.842-7.055-4.266-7.055-6.881S4.49,23.677,8.85,21.835Z" transform="translate(0)" fill="#e6de0f"/>
  <path id="Caminho_1500" data-name="Caminho 1500" d="M54.628,62.256A7.628,7.628,0,1,0,47,54.628,7.628,7.628,0,0,0,54.628,62.256Zm0-13.461a5.833,5.833,0,1,1-5.833,5.833A5.833,5.833,0,0,1,54.628,48.795Z" transform="translate(-25.911 -25.911)" fill="#e6de0f"/>
  <path id="Caminho_1501" data-name="Caminho 1501" d="M59.59,63.179A3.59,3.59,0,1,0,56,59.59,3.59,3.59,0,0,0,59.59,63.179Zm0-5.384a1.795,1.795,0,1,1-1.795,1.795A1.795,1.795,0,0,1,59.59,57.795Z" transform="translate(-30.873 -30.873)" fill="#e6de0f"/>
</svg>
