<svg xmlns="http://www.w3.org/2000/svg" width="110.883" height="93.623" viewBox="0 0 110.883 93.623">
  <g id="Grupo_594" data-name="Grupo 594" transform="translate(-267.779 -5504.256)">
    <path id="Caminho_974" data-name="Caminho 974" d="M305.748,5524.083a.98.98,0,0,1,1.385-1.386l8.295,8.3,8.3-8.3a.98.98,0,0,1,1.385,1.386l-8.295,8.294,8.295,8.294a.979.979,0,0,1-1.385,1.385l-8.295-8.294-8.295,8.294a.979.979,0,0,1-1.385-1.385l8.295-8.294Zm62.634-3.205a.977.977,0,0,1-1.186-1.553l7.008-5.338c1.495-1.139.954-.824-.794-.816-9.923.042-15.806,2.293-19.255,6.215-3.87,4.4-4.784,11.025-4.945,19.035-.1,4.755.045,9.474.181,14.046.456,15.292.864,28.964-7.673,37.816-12.514,12.976-37.308,9.1-42.844-9.885-4.154-14.246,4.613-22.359,17.059-27.1,9.928-3.779,21.4-9.888,21.008-22.306a19.487,19.487,0,0,0-25.962-17.564c-10.379,3.613-18.908,14.122-22.821,24.094a.978.978,0,0,1-1.821-.712c4.125-10.514,13.07-21.421,24-25.227,13.674-4.759,28.1,5.024,28.556,19.347.427,13.407-11.455,20.082-22.263,24.2-11.409,4.343-19.727,11.531-15.88,24.725,5.11,17.526,28.081,20.979,39.562,9.075,7.969-8.263,7.573-21.548,7.13-36.409-.137-4.589-.278-9.327-.181-14.137.169-8.433,1.17-15.449,5.427-20.29,3.706-4.214,9.8-6.686,19.83-6.866,2.23-.04,2.064.2.288-1.26L367.968,5506a.976.976,0,0,1,1.239-1.507l8.378,6.873c1.306,1.023,1.2,1.59-.094,2.576l-9.109,6.939ZM291.2,5545.069a13.733,13.733,0,1,1-19.421,0A13.787,13.787,0,0,1,291.2,5545.069Zm-1.385,1.385a11.774,11.774,0,1,0,0,16.651A11.82,11.82,0,0,0,289.815,5546.455Zm40.523,19.027a.979.979,0,0,1,1.385,1.385l-8.295,8.294,8.295,8.295a.98.98,0,0,1-1.385,1.385l-8.295-8.295-8.295,8.295a.98.98,0,0,1-1.385-1.385l8.295-8.295-8.295-8.294a.979.979,0,0,1,1.385-1.385l8.295,8.294,8.295-8.294Zm46.64-.642a.979.979,0,0,1,1.385,1.385l-8.295,8.295,8.295,8.3a.979.979,0,0,1-1.385,1.385l-8.295-8.3-8.295,8.3a.979.979,0,0,1-1.385-1.385l8.295-8.3L359,5566.225a.979.979,0,0,1,1.385-1.385l8.295,8.3,8.295-8.3Zm-.012-30.417a.98.98,0,0,1,1.385,1.386l-8.295,8.294,8.295,8.295a.979.979,0,0,1-1.385,1.385l-8.295-8.295-8.295,8.295a.979.979,0,0,1-1.385-1.385l8.295-8.295-8.295-8.294a.98.98,0,0,1,1.385-1.386l8.295,8.3,8.295-8.3Z" transform="translate(0 0)" fill="#18608b"/>
  </g>
</svg>
