<svg xmlns="http://www.w3.org/2000/svg" width="138.661" height="99.044" viewBox="0 0 138.661 99.044">
  <g id="Grupo_1129" data-name="Grupo 1129" transform="translate(-682.751 -4337.134)">
    <path id="Caminho_1506" data-name="Caminho 1506" d="M135.233,12H11.428A7.428,7.428,0,0,0,4,19.428v84.187a7.428,7.428,0,0,0,7.428,7.428h123.8a7.428,7.428,0,0,0,7.428-7.428V19.428A7.428,7.428,0,0,0,135.233,12ZM8.952,19.428a2.476,2.476,0,0,1,2.476-2.476h123.8a2.476,2.476,0,0,1,2.476,2.476v7.428H8.952Zm128.757,84.187a2.476,2.476,0,0,1-2.476,2.476H11.428a2.476,2.476,0,0,1-2.476-2.476V31.809H137.709Z" transform="translate(678.751 4325.134)" fill="#18608b"/>
    <path id="Caminho_1507" data-name="Caminho 1507" d="M56.476,15h0a2.476,2.476,0,1,0,2.476,2.476A2.476,2.476,0,0,0,56.476,15Z" transform="translate(752.556 4329.563)" fill="#18608b"/>
    <path id="Caminho_1508" data-name="Caminho 1508" d="M52.476,15h0a2.476,2.476,0,1,0,2.476,2.476A2.476,2.476,0,0,0,52.476,15Z" transform="translate(746.651 4329.563)" fill="#18608b"/>
    <path id="Caminho_1509" data-name="Caminho 1509" d="M48.476,15h0a2.476,2.476,0,1,0,2.476,2.476A2.476,2.476,0,0,0,48.476,15Z" transform="translate(740.747 4329.563)" fill="#18608b"/>
    <path id="Caminho_1523" data-name="Caminho 1523" d="M71.093,29.611a1.919,1.919,0,0,0,2.476,0L91.478,13.43V16.6a1.919,1.919,0,1,0,3.839,0V8.919A1.919,1.919,0,0,0,93.4,7H85.72a1.919,1.919,0,0,0,0,3.839h2.9L72.283,25.6l-8.331-6.661a1.919,1.919,0,0,0-2.342,0L39.652,35.293l-8.446-6.757a1.919,1.919,0,0,0-2.323,0L7.77,43.892a1.912,1.912,0,0,0,2.3,3.052L30.055,32.452l8.465,6.757a1.919,1.919,0,0,0,2.342,0L62.686,22.855Z" transform="translate(699.539 4356.612)" fill="#18608b"/>
    <path id="Caminho_1524" data-name="Caminho 1524" d="M8.919,32A1.919,1.919,0,0,0,7,33.919v5.758a1.919,1.919,0,1,0,3.839,0V33.919A1.919,1.919,0,0,0,8.919,32Z" transform="translate(699.56 4379.599)" fill="#18608b"/>
    <path id="Caminho_1525" data-name="Caminho 1525" d="M13.919,29A1.919,1.919,0,0,0,12,30.919V42.436a1.919,1.919,0,1,0,3.839,0V30.919A1.919,1.919,0,0,0,13.919,29Z" transform="translate(704.157 4376.841)" fill="#18608b"/>
    <path id="Caminho_1526" data-name="Caminho 1526" d="M18.919,25A1.919,1.919,0,0,0,17,26.919V46.114a1.919,1.919,0,1,0,3.839,0V26.919A1.919,1.919,0,0,0,18.919,25Z" transform="translate(708.754 4373.163)" fill="#18608b"/>
    <path id="Caminho_1527" data-name="Caminho 1527" d="M23.919,29A1.919,1.919,0,0,0,22,30.919V42.436a1.919,1.919,0,1,0,3.839,0V30.919A1.919,1.919,0,0,0,23.919,29Z" transform="translate(713.352 4376.841)" fill="#18608b"/>
    <path id="Caminho_1528" data-name="Caminho 1528" d="M28.919,25A1.919,1.919,0,0,0,27,26.919V46.114a1.919,1.919,0,1,0,3.839,0V26.919A1.919,1.919,0,0,0,28.919,25Z" transform="translate(717.949 4373.163)" fill="#18608b"/>
    <path id="Caminho_1529" data-name="Caminho 1529" d="M33.919,23A1.919,1.919,0,0,0,32,24.919V40.275a1.919,1.919,0,0,0,3.839,0V24.919A1.919,1.919,0,0,0,33.919,23Z" transform="translate(722.546 4371.324)" fill="#18608b"/>
    <path id="Caminho_1530" data-name="Caminho 1530" d="M38.919,22A1.919,1.919,0,0,0,37,23.919v9.6a1.919,1.919,0,0,0,3.839,0v-9.6A1.919,1.919,0,0,0,38.919,22Z" transform="translate(727.144 4370.404)" fill="#18608b"/>
    <path id="Caminho_1531" data-name="Caminho 1531" d="M43.919,23A1.919,1.919,0,0,0,42,24.919v3.839a1.919,1.919,0,0,0,3.839,0V24.919A1.919,1.919,0,0,0,43.919,23Z" transform="translate(731.741 4371.324)" fill="#18608b"/>
    <path id="Caminho_1532" data-name="Caminho 1532" d="M48.919,19A1.919,1.919,0,0,0,47,20.919V32.436a1.919,1.919,0,1,0,3.839,0V20.919A1.919,1.919,0,0,0,48.919,19Z" transform="translate(736.339 4367.646)" fill="#18608b"/>
    <path id="Caminho_1533" data-name="Caminho 1533" d="M52,18.919V36.195a1.919,1.919,0,1,0,3.839,0V18.919a1.919,1.919,0,1,0-3.839,0Z" transform="translate(740.936 4365.807)" fill="#18608b"/>
  </g>
</svg>
